# Blender v2.78 (sub 0) OBJ File: 'Export.blend'
# www.blender.org
o Deck_-_B4_Plane.003
v -1.283927 1.340649 2.564845
v -1.280918 1.343658 2.564845
v -1.280918 1.340649 2.567854
v 1.280918 1.340649 2.567854
v 1.280918 1.343658 2.564845
v 1.283927 1.340649 2.564845
v -1.283927 1.340649 -2.564845
v -1.280918 1.340649 -2.567854
v -1.280918 1.343658 -2.564845
v 1.283927 1.340649 -2.564845
v 1.280918 1.343658 -2.564845
v 1.280918 1.340649 -2.567854
v -1.283927 1.282838 2.564845
v -1.280918 1.282838 2.567854
v -1.280918 1.279829 2.564845
v 1.280918 1.282838 2.567854
v 1.283927 1.282838 2.564845
v 1.280918 1.279829 2.564845
v -1.283927 1.282838 -2.564845
v -1.280918 1.279829 -2.564845
v -1.280918 1.282838 -2.567854
v 1.283927 1.282838 -2.564845
v 1.280918 1.282838 -2.567854
v 1.280918 1.279829 -2.564845
vn 0.0000 0.0000 1.0000
vn 0.0000 0.0000 -1.0000
vn 1.0000 0.0000 0.0000
vn 0.0000 -1.0000 0.0000
vn -1.0000 0.0000 0.0000
vn -0.5773 0.5774 0.5773
vn 0.5773 0.5774 0.5773
vn -0.5773 0.5774 -0.5773
vn 0.5773 0.5774 -0.5773
vn -0.5773 -0.5774 0.5773
vn 0.5773 -0.5774 0.5773
vn -0.5773 -0.5774 -0.5773
vn 0.5773 -0.5774 -0.5773
vn -0.7071 0.7071 0.0000
vn 0.0000 0.7071 0.7071
vn 0.7071 0.7071 0.0000
vn 0.0000 0.7071 -0.7071
vn -0.7071 -0.7071 0.0000
vn 0.0000 -0.7071 0.7071
vn 0.7071 -0.7071 0.0000
vn 0.0000 -0.7071 -0.7071
vn 0.7071 0.0000 -0.7071
vn 0.7071 0.0000 0.7071
vn -0.7071 0.0000 0.7071
vn -0.7071 0.0000 -0.7071
vn 0.0000 1.0000 0.0000
s off
f 3//1 14//1 16//1 4//1
f 12//2 23//2 21//2 8//2
f 6//3 17//3 22//3 10//3
f 15//4 20//4 24//4 18//4
f 7//5 19//5 13//5 1//5
f 1//6 3//6 2//6
f 4//7 6//7 5//7
f 7//8 9//8 8//8
f 10//9 12//9 11//9
f 13//10 15//10 14//10
f 16//11 18//11 17//11
f 19//12 21//12 20//12
f 22//13 24//13 23//13
f 9//14 7//14 1//14 2//14
f 2//15 3//15 4//15 5//15
f 5//16 6//16 10//16 11//16
f 11//17 12//17 8//17 9//17
f 19//18 20//18 15//18 13//18
f 14//19 15//19 18//19 16//19
f 17//20 18//20 24//20 22//20
f 23//21 24//21 20//21 21//21
f 12//22 10//22 22//22 23//22
f 16//23 17//23 6//23 4//23
f 3//24 1//24 13//24 14//24
f 21//25 19//25 7//25 8//25
f 2//26 5//26 11//26 9//26
