# Blender v2.78 (sub 0) OBJ File: 'Export.blend'
# www.blender.org
o Feet_-_B4_Cube.022
v -0.966729 0.524092 2.226736
v -0.964463 0.526633 2.226736
v -0.964463 0.524092 2.229349
v 0.964463 0.524092 2.229349
v 0.964463 0.526633 2.226736
v 0.966729 0.524092 2.226736
v -0.966729 0.524092 -2.226736
v -0.964463 0.524092 -2.229349
v -0.964463 0.526633 -2.226736
v 0.966729 0.524092 -2.226736
v 0.964463 0.526633 -2.226736
v 0.964463 0.524092 -2.229349
v -0.966729 0.475282 2.226736
v -0.964463 0.475282 2.229349
v -0.964463 0.472741 2.226736
v 0.964463 0.475282 2.229349
v 0.966729 0.475282 2.226736
v 0.964463 0.472741 2.226736
v -0.966729 0.475282 -2.226736
v -0.964463 0.472741 -2.226736
v -0.964463 0.475282 -2.229349
v 0.966729 0.475282 -2.226736
v 0.964463 0.475282 -2.229349
v 0.964463 0.472741 -2.226736
v 0.970627 0.000000 -1.896843
v 0.970627 0.003393 -1.895927
v 0.970077 0.003393 -1.896843
v 0.970627 1.299312 -1.895927
v 0.970627 1.302705 -1.896843
v 0.970077 1.299312 -1.896843
v 0.970627 0.000000 -2.246827
v 0.970077 0.003393 -2.246827
v 0.970627 0.003393 -2.247743
v 0.970627 1.302705 -2.246827
v 0.970627 1.299312 -2.247743
v 0.970077 1.299312 -2.246827
v 1.180630 0.000000 -1.896843
v 1.181180 0.003393 -1.896843
v 1.180630 0.003393 -1.895927
v 1.180630 1.302705 -1.896843
v 1.180630 1.299312 -1.895927
v 1.181180 1.299312 -1.896843
v 1.180630 0.000000 -2.246827
v 1.180630 0.003393 -2.247743
v 1.181180 0.003393 -2.246827
v 1.180630 1.302705 -2.246827
v 1.181180 1.299312 -2.246827
v 1.180630 1.299312 -2.247743
v 0.966729 0.524092 2.226736
v 0.964463 0.526633 2.226736
v 0.964463 0.524092 2.229349
v -0.964463 0.524092 2.229349
v -0.964463 0.526633 2.226736
v -0.966729 0.524092 2.226736
v 0.966729 0.524092 -2.226736
v 0.964463 0.524092 -2.229349
v 0.964463 0.526633 -2.226736
v -0.966729 0.524092 -2.226736
v -0.964463 0.526633 -2.226736
v -0.964463 0.524092 -2.229349
v 0.966729 0.475282 2.226736
v 0.964463 0.475282 2.229349
v 0.964463 0.472741 2.226736
v -0.964463 0.475282 2.229349
v -0.966729 0.475282 2.226736
v -0.964463 0.472741 2.226736
v 0.966729 0.475282 -2.226736
v 0.964463 0.472741 -2.226736
v 0.964463 0.475282 -2.229349
v -0.966729 0.475282 -2.226736
v -0.964463 0.475282 -2.229349
v -0.964463 0.472741 -2.226736
v -0.970627 0.000000 -1.896843
v -0.970627 0.003393 -1.895927
v -0.970077 0.003393 -1.896843
v -0.970627 1.299312 -1.895927
v -0.970627 1.302705 -1.896843
v -0.970077 1.299312 -1.896843
v -0.970627 0.000000 -2.246827
v -0.970077 0.003393 -2.246827
v -0.970627 0.003393 -2.247743
v -0.970627 1.302705 -2.246827
v -0.970627 1.299312 -2.247743
v -0.970077 1.299312 -2.246827
v -1.180630 0.000000 -1.896843
v -1.181180 0.003393 -1.896843
v -1.180630 0.003393 -1.895927
v -1.180630 1.302705 -1.896843
v -1.180630 1.299312 -1.895927
v -1.181180 1.299312 -1.896843
v -1.180630 0.000000 -2.246827
v -1.180630 0.003393 -2.247743
v -1.181180 0.003393 -2.246827
v -1.180630 1.302705 -2.246827
v -1.181180 1.299312 -2.246827
v -1.180630 1.299312 -2.247743
v -0.966729 0.524092 -2.226736
v -0.964463 0.526633 -2.226736
v -0.964463 0.524092 -2.229349
v 0.964463 0.524092 -2.229349
v 0.964463 0.526633 -2.226736
v 0.966729 0.524092 -2.226736
v -0.966729 0.524092 2.226736
v -0.964463 0.524092 2.229349
v -0.964463 0.526633 2.226736
v 0.966729 0.524092 2.226736
v 0.964463 0.526633 2.226736
v 0.964463 0.524092 2.229349
v -0.966729 0.475282 -2.226736
v -0.964463 0.475282 -2.229349
v -0.964463 0.472741 -2.226736
v 0.964463 0.475282 -2.229349
v 0.966729 0.475282 -2.226736
v 0.964463 0.472741 -2.226736
v -0.966729 0.475282 2.226736
v -0.964463 0.472741 2.226736
v -0.964463 0.475282 2.229349
v 0.966729 0.475282 2.226736
v 0.964463 0.475282 2.229349
v 0.964463 0.472741 2.226736
v 0.970627 0.000000 1.896843
v 0.970627 0.003393 1.895927
v 0.970077 0.003393 1.896843
v 0.970627 1.299312 1.895927
v 0.970627 1.302705 1.896843
v 0.970077 1.299312 1.896843
v 0.970627 0.000000 2.246827
v 0.970077 0.003393 2.246827
v 0.970627 0.003393 2.247743
v 0.970627 1.302705 2.246827
v 0.970627 1.299312 2.247743
v 0.970077 1.299312 2.246827
v 1.180630 0.000000 1.896843
v 1.181180 0.003393 1.896843
v 1.180630 0.003393 1.895927
v 1.180630 1.302705 1.896843
v 1.180630 1.299312 1.895927
v 1.181180 1.299312 1.896843
v 1.180630 0.000000 2.246827
v 1.180630 0.003393 2.247743
v 1.181180 0.003393 2.246827
v 1.180630 1.302705 2.246827
v 1.181180 1.299312 2.246827
v 1.180630 1.299312 2.247743
v 0.966729 0.524092 -2.226736
v 0.964463 0.526633 -2.226736
v 0.964463 0.524092 -2.229349
v -0.964463 0.524092 -2.229349
v -0.964463 0.526633 -2.226736
v -0.966729 0.524092 -2.226736
v 0.966729 0.524092 2.226736
v 0.964463 0.524092 2.229349
v 0.964463 0.526633 2.226736
v -0.966729 0.524092 2.226736
v -0.964463 0.526633 2.226736
v -0.964463 0.524092 2.229349
v 0.966729 0.475282 -2.226736
v 0.964463 0.475282 -2.229349
v 0.964463 0.472741 -2.226736
v -0.964463 0.475282 -2.229349
v -0.966729 0.475282 -2.226736
v -0.964463 0.472741 -2.226736
v 0.966729 0.475282 2.226736
v 0.964463 0.472741 2.226736
v 0.964463 0.475282 2.229349
v -0.966729 0.475282 2.226736
v -0.964463 0.475282 2.229349
v -0.964463 0.472741 2.226736
v -0.970627 0.000000 1.896843
v -0.970627 0.003393 1.895927
v -0.970077 0.003393 1.896843
v -0.970627 1.299312 1.895927
v -0.970627 1.302705 1.896843
v -0.970077 1.299312 1.896843
v -0.970627 0.000000 2.246827
v -0.970077 0.003393 2.246827
v -0.970627 0.003393 2.247743
v -0.970627 1.302705 2.246827
v -0.970627 1.299312 2.247743
v -0.970077 1.299312 2.246827
v -1.180630 0.000000 1.896843
v -1.181180 0.003393 1.896843
v -1.180630 0.003393 1.895927
v -1.180630 1.302705 1.896843
v -1.180630 1.299312 1.895927
v -1.181180 1.299312 1.896843
v -1.180630 0.000000 2.246827
v -1.180630 0.003393 2.247743
v -1.181180 0.003393 2.246827
v -1.180630 1.302705 2.246827
v -1.181180 1.299312 2.246827
v -1.180630 1.299312 2.247743
vn 0.0000 0.0000 1.0000
vn 0.0000 0.0000 -1.0000
vn 1.0000 0.0000 0.0000
vn 0.0000 -1.0000 0.0000
vn -1.0000 0.0000 0.0000
vn -0.6266 0.5587 0.5433
vn 0.6266 0.5587 0.5433
vn -0.6266 0.5587 -0.5433
vn 0.6266 0.5587 -0.5433
vn -0.6266 -0.5587 0.5433
vn 0.6266 -0.5587 0.5433
vn -0.6266 -0.5587 -0.5433
vn 0.6266 -0.5587 -0.5433
vn -0.7463 0.6656 0.0000
vn 0.0000 0.7169 0.6972
vn 0.7463 0.6656 0.0000
vn 0.0000 0.7169 -0.6972
vn -0.7463 -0.6656 0.0000
vn 0.0000 -0.7169 0.6972
vn 0.7463 -0.6656 0.0000
vn 0.0000 -0.7169 -0.6972
vn 0.7555 0.0000 -0.6552
vn 0.7555 0.0000 0.6552
vn -0.7555 0.0000 0.6552
vn -0.7555 0.0000 -0.6552
vn 0.0000 1.0000 0.0000
vn -0.8494 -0.1376 0.5095
vn -0.8494 0.1376 0.5095
vn -0.8494 -0.1376 -0.5095
vn -0.8493 0.1376 -0.5096
vn 0.8494 -0.1376 0.5095
vn 0.8494 0.1376 0.5095
vn 0.8494 -0.1376 -0.5095
vn 0.8493 0.1377 -0.5096
vn -0.9871 -0.1599 0.0000
vn -0.8575 0.0000 0.5145
vn -0.9871 0.1599 0.0000
vn -0.8575 0.0000 -0.5145
vn 0.0000 -0.2607 -0.9654
vn 0.0000 0.2607 -0.9654
vn 0.8575 0.0000 -0.5145
vn 0.9871 -0.1599 0.0000
vn 0.9871 0.1599 0.0000
vn 0.8575 0.0000 0.5145
vn 0.0000 -0.2607 0.9654
vn 0.0000 0.2607 0.9654
vn 0.8493 0.1376 -0.5096
vn -0.8493 0.1377 -0.5096
vn -0.8494 0.1376 -0.5095
vn -0.8493 0.1376 0.5096
vn 0.8494 0.1376 -0.5095
vn 0.8493 0.1377 0.5096
vn 0.8493 0.1376 0.5096
vn -0.8493 0.1377 0.5096
s off
f 3//1 14//1 16//1 4//1
f 12//2 23//2 21//2 8//2
f 6//3 17//3 22//3 10//3
f 15//4 20//4 24//4 18//4
f 7//5 19//5 13//5 1//5
f 1//6 3//6 2//6
f 4//7 6//7 5//7
f 7//8 9//8 8//8
f 10//9 12//9 11//9
f 13//10 15//10 14//10
f 16//11 18//11 17//11
f 19//12 21//12 20//12
f 22//13 24//13 23//13
f 9//14 7//14 1//14 2//14
f 2//15 3//15 4//15 5//15
f 5//16 6//16 10//16 11//16
f 11//17 12//17 8//17 9//17
f 19//18 20//18 15//18 13//18
f 14//19 15//19 18//19 16//19
f 17//20 18//20 24//20 22//20
f 23//21 24//21 20//21 21//21
f 12//22 10//22 22//22 23//22
f 16//23 17//23 6//23 4//23
f 3//24 1//24 13//24 14//24
f 21//25 19//25 7//25 8//25
f 2//26 5//26 11//26 9//26
f 39//1 41//1 28//1 26//1
f 45//3 47//3 42//3 38//3
f 46//26 34//26 29//26 40//26
f 27//5 30//5 36//5 32//5
f 33//2 35//2 48//2 44//2
f 25//27 26//27 27//27
f 28//28 29//28 30//28
f 31//29 32//29 33//29
f 34//30 35//30 36//30
f 37//31 38//31 39//31
f 40//32 41//32 42//32
f 43//33 44//33 45//33
f 46//34 47//34 48//34
f 31//35 25//35 27//35 32//35
f 26//36 28//36 30//36 27//36
f 29//37 34//37 36//37 30//37
f 35//38 33//38 32//38 36//38
f 43//39 31//39 33//39 44//39
f 34//40 46//40 48//40 35//40
f 47//41 45//41 44//41 48//41
f 37//42 43//42 45//42 38//42
f 46//43 40//43 42//43 47//43
f 41//44 39//44 38//44 42//44
f 25//45 37//45 39//45 26//45
f 40//46 29//46 28//46 41//46
f 31//4 43//4 37//4 25//4
f 51//1 52//1 64//1 62//1
f 60//2 56//2 69//2 71//2
f 54//5 58//5 70//5 65//5
f 63//4 66//4 72//4 68//4
f 55//3 49//3 61//3 67//3
f 49//7 50//7 51//7
f 52//6 53//6 54//6
f 55//9 56//9 57//9
f 58//8 59//8 60//8
f 61//11 62//11 63//11
f 64//10 65//10 66//10
f 67//13 68//13 69//13
f 70//12 71//12 72//12
f 57//16 50//16 49//16 55//16
f 50//15 53//15 52//15 51//15
f 53//14 59//14 58//14 54//14
f 59//17 57//17 56//17 60//17
f 67//20 61//20 63//20 68//20
f 62//19 64//19 66//19 63//19
f 65//18 70//18 72//18 66//18
f 71//21 69//21 68//21 72//21
f 60//25 71//25 70//25 58//25
f 64//24 52//24 54//24 65//24
f 51//23 62//23 61//23 49//23
f 69//22 56//22 55//22 67//22
f 50//26 57//26 59//26 53//26
f 87//1 74//1 76//1 89//1
f 93//5 86//5 90//5 95//5
f 94//26 88//26 77//26 82//26
f 75//3 80//3 84//3 78//3
f 81//2 92//2 96//2 83//2
f 73//31 75//31 74//31
f 76//32 78//32 77//32
f 79//33 81//33 80//33
f 82//47 84//47 83//47
f 85//27 87//27 86//27
f 88//28 90//28 89//28
f 91//29 93//29 92//29
f 94//48 96//48 95//48
f 79//42 80//42 75//42 73//42
f 74//44 75//44 78//44 76//44
f 77//43 78//43 84//43 82//43
f 83//41 84//41 80//41 81//41
f 91//39 92//39 81//39 79//39
f 82//40 83//40 96//40 94//40
f 95//38 96//38 92//38 93//38
f 85//35 86//35 93//35 91//35
f 94//37 95//37 90//37 88//37
f 89//36 90//36 86//36 87//36
f 73//45 74//45 87//45 85//45
f 88//46 89//46 76//46 77//46
f 79//4 73//4 85//4 91//4
f 99//2 100//2 112//2 110//2
f 108//1 104//1 117//1 119//1
f 102//3 106//3 118//3 113//3
f 111//4 114//4 120//4 116//4
f 103//5 97//5 109//5 115//5
f 97//8 98//8 99//8
f 100//9 101//9 102//9
f 103//6 104//6 105//6
f 106//7 107//7 108//7
f 109//12 110//12 111//12
f 112//13 113//13 114//13
f 115//10 116//10 117//10
f 118//11 119//11 120//11
f 105//14 98//14 97//14 103//14
f 98//17 101//17 100//17 99//17
f 101//16 107//16 106//16 102//16
f 107//15 105//15 104//15 108//15
f 115//18 109//18 111//18 116//18
f 110//21 112//21 114//21 111//21
f 113//20 118//20 120//20 114//20
f 119//19 117//19 116//19 120//19
f 108//23 119//23 118//23 106//23
f 112//22 100//22 102//22 113//22
f 99//25 110//25 109//25 97//25
f 117//24 104//24 103//24 115//24
f 98//26 105//26 107//26 101//26
f 135//2 122//2 124//2 137//2
f 141//3 134//3 138//3 143//3
f 142//26 136//26 125//26 130//26
f 123//5 128//5 132//5 126//5
f 129//1 140//1 144//1 131//1
f 121//29 123//29 122//29
f 124//49 126//49 125//49
f 127//27 129//27 128//27
f 130//50 132//50 131//50
f 133//33 135//33 134//33
f 136//51 138//51 137//51
f 139//31 141//31 140//31
f 142//52 144//52 143//52
f 127//35 128//35 123//35 121//35
f 122//38 123//38 126//38 124//38
f 125//37 126//37 132//37 130//37
f 131//36 132//36 128//36 129//36
f 139//45 140//45 129//45 127//45
f 130//46 131//46 144//46 142//46
f 143//44 144//44 140//44 141//44
f 133//42 134//42 141//42 139//42
f 142//43 143//43 138//43 136//43
f 137//41 138//41 134//41 135//41
f 121//39 122//39 135//39 133//39
f 136//40 137//40 124//40 125//40
f 127//4 121//4 133//4 139//4
f 147//2 158//2 160//2 148//2
f 156//1 167//1 165//1 152//1
f 150//5 161//5 166//5 154//5
f 159//4 164//4 168//4 162//4
f 151//3 163//3 157//3 145//3
f 145//9 147//9 146//9
f 148//8 150//8 149//8
f 151//7 153//7 152//7
f 154//6 156//6 155//6
f 157//13 159//13 158//13
f 160//12 162//12 161//12
f 163//11 165//11 164//11
f 166//10 168//10 167//10
f 153//16 151//16 145//16 146//16
f 146//17 147//17 148//17 149//17
f 149//14 150//14 154//14 155//14
f 155//15 156//15 152//15 153//15
f 163//20 164//20 159//20 157//20
f 158//21 159//21 162//21 160//21
f 161//18 162//18 168//18 166//18
f 167//19 168//19 164//19 165//19
f 156//24 154//24 166//24 167//24
f 160//25 161//25 150//25 148//25
f 147//22 145//22 157//22 158//22
f 165//23 163//23 151//23 152//23
f 146//26 149//26 155//26 153//26
f 183//2 185//2 172//2 170//2
f 189//5 191//5 186//5 182//5
f 190//26 178//26 173//26 184//26
f 171//3 174//3 180//3 176//3
f 177//1 179//1 192//1 188//1
f 169//33 170//33 171//33
f 172//51 173//51 174//51
f 175//31 176//31 177//31
f 178//53 179//53 180//53
f 181//29 182//29 183//29
f 184//49 185//49 186//49
f 187//27 188//27 189//27
f 190//54 191//54 192//54
f 175//42 169//42 171//42 176//42
f 170//41 172//41 174//41 171//41
f 173//43 178//43 180//43 174//43
f 179//44 177//44 176//44 180//44
f 187//45 175//45 177//45 188//45
f 178//46 190//46 192//46 179//46
f 191//36 189//36 188//36 192//36
f 181//35 187//35 189//35 182//35
f 190//37 184//37 186//37 191//37
f 185//38 183//38 182//38 186//38
f 169//39 181//39 183//39 170//39
f 184//40 173//40 172//40 185//40
f 175//4 187//4 181//4 169//4
