# Blender v2.77 (sub 0) OBJ File: 'Table.blend'
# www.blender.org
mtllib Table.mtl
v -8.161679 5.053731 4.476302
v 8.161679 5.053731 4.476302
v -8.161679 5.053731 -4.476302
v 8.161679 5.053731 -4.476302
v -8.161679 4.897018 -4.476302
v -8.161679 4.897018 4.476302
v 8.161679 4.897018 4.476302
v 8.161679 4.897018 -4.476302
v -7.964490 4.897018 -4.368153
v -7.964490 4.897018 4.368153
v 7.964490 4.897018 4.368153
v 7.964490 4.897018 -4.368153
v -7.964490 4.792879 -4.368153
v -7.964490 4.792879 4.368153
v 7.964490 4.792879 4.368153
v 7.964490 4.792879 -4.368153
v -8.151505 4.792879 -4.470721
v -8.151505 4.792879 4.470721
v 8.151505 4.792879 4.470721
v 8.151505 4.792879 -4.470721
v -8.151505 4.706928 -4.470721
v -8.151505 4.706928 4.470721
v 8.151505 4.706928 4.470721
v 8.151505 4.706928 -4.470721
vn 0.0000 1.0000 0.0000
vn 0.0000 -1.0000 0.0000
vn 0.0000 0.0000 -1.0000
vn 0.0000 0.0000 1.0000
vn 1.0000 0.0000 0.0000
vn -1.0000 0.0000 0.0000
usemtl None
s off
f 2//1 3//1 1//1
f 10//2 7//2 6//2
f 8//3 3//3 4//3
f 6//4 2//4 1//4
f 7//5 4//5 2//5
f 5//6 1//6 3//6
f 15//5 12//5 11//5
f 11//2 8//2 7//2
f 9//2 6//2 5//2
f 12//2 5//2 8//2
f 16//1 17//1 13//1
f 13//6 10//6 9//6
f 16//3 9//3 12//3
f 14//4 11//4 10//4
f 23//5 20//5 19//5
f 14//1 19//1 15//1
f 19//1 16//1 15//1
f 17//1 14//1 13//1
f 21//2 23//2 22//2
f 21//6 18//6 17//6
f 24//3 17//3 20//3
f 22//4 19//4 18//4
f 2//1 4//1 3//1
f 10//2 11//2 7//2
f 8//3 5//3 3//3
f 6//4 7//4 2//4
f 7//5 8//5 4//5
f 5//6 6//6 1//6
f 15//5 16//5 12//5
f 11//2 12//2 8//2
f 9//2 10//2 6//2
f 12//2 9//2 5//2
f 16//1 20//1 17//1
f 13//6 14//6 10//6
f 16//3 13//3 9//3
f 14//4 15//4 11//4
f 23//5 24//5 20//5
f 14//1 18//1 19//1
f 19//1 20//1 16//1
f 17//1 18//1 14//1
f 21//2 24//2 23//2
f 21//6 22//6 18//6
f 24//3 21//3 17//3
f 22//4 23//4 19//4
v -5.745406 0.000000 -0.498378
v -4.712106 0.000000 -0.498378
v -5.745406 0.000000 -3.330451
v -4.712106 0.000000 -3.330451
v -5.629423 0.291348 -0.455901
v -4.684192 0.291348 -0.455901
v -5.629423 0.291348 -3.046596
v -4.684192 0.291348 -3.046596
v -5.745406 0.000000 -2.130564
v -5.745406 0.000000 -1.622852
v -4.712106 0.000000 -1.622852
v -4.712106 0.000000 -2.130564
v -5.629423 0.291348 -2.021175
v -5.629423 0.291348 -1.556735
v -4.684192 0.291348 -1.556735
v -4.684192 0.291348 -2.021175
v -6.292503 4.734867 -3.946866
v -6.292503 4.734867 -3.482426
v -5.347271 4.734867 -3.482426
v -5.347271 4.734867 -3.946866
v 5.745406 0.000000 -0.498378
v 4.712106 0.000000 -0.498378
v 5.745406 0.000000 -3.330451
v 4.712106 0.000000 -3.330451
v 0.000000 0.000000 -0.498378
v 5.629423 0.291348 -0.455901
v 4.684192 0.291348 -0.455901
v 5.629423 0.291348 -3.046596
v 4.684192 0.291348 -3.046596
v 0.000000 0.291348 -0.455901
v 5.745406 0.000000 -2.130564
v 5.745406 0.000000 -1.622852
v 4.712106 0.000000 -1.622852
v 4.712106 0.000000 -2.130564
v 5.629423 0.291348 -2.021175
v 5.629423 0.291348 -1.556735
v 4.684192 0.291348 -1.556735
v 4.684192 0.291348 -2.021175
v 6.292503 4.734867 -3.946866
v 6.292503 4.734867 -3.482426
v 5.347271 4.734867 -3.482426
v 5.347271 4.734867 -3.946866
v -5.745406 0.000000 0.498378
v -4.712106 0.000000 0.498378
v -5.745406 0.000000 3.330451
v -4.712106 0.000000 3.330451
v -5.629423 0.291348 0.455901
v -4.684192 0.291348 0.455901
v -5.629423 0.291348 3.046596
v -4.684192 0.291348 3.046596
v -5.745406 0.000000 2.130564
v -5.745406 0.000000 1.622852
v -4.712106 0.000000 1.622852
v -4.712106 0.000000 2.130564
v -5.629423 0.291348 2.021175
v -5.629423 0.291348 1.556735
v -4.684192 0.291348 1.556735
v -4.684192 0.291348 2.021175
v -5.745406 0.000000 0.000000
v -4.712106 0.000000 0.000000
v -5.629423 0.291348 0.000000
v -4.684192 0.291348 0.000000
v -6.292503 4.734867 3.946866
v -6.292503 4.734867 3.482426
v -5.347271 4.734867 3.482426
v -5.347271 4.734867 3.946866
v 5.745406 0.000000 0.498378
v 4.712106 0.000000 0.498378
v 5.745406 0.000000 3.330451
v 4.712106 0.000000 3.330451
v 0.000000 0.000000 0.498378
v 5.629423 0.291348 0.455901
v 4.684192 0.291348 0.455901
v 5.629423 0.291348 3.046596
v 4.684192 0.291348 3.046596
v 0.000000 0.291348 0.455901
v 5.745406 0.000000 2.130564
v 5.745406 0.000000 1.622852
v 4.712106 0.000000 1.622852
v 4.712106 0.000000 2.130564
v 5.629423 0.291348 2.021175
v 5.629423 0.291348 1.556735
v 4.684192 0.291348 1.556735
v 4.684192 0.291348 2.021175
v 5.745406 0.000000 0.000000
v 4.712106 0.000000 0.000000
v 0.000000 0.000000 0.000000
v 5.629423 0.291348 0.000000
v 4.684192 0.291348 0.000000
v 0.000000 0.291348 0.000000
v 6.292503 4.734867 3.946866
v 6.292503 4.734867 3.482426
v 5.347271 4.734867 3.482426
v 5.347271 4.734867 3.946866
vn 0.0000 -1.0000 0.0000
vn 0.0000 1.0000 0.0000
vn 0.0000 0.1443 -0.9895
vn -0.9291 0.3699 0.0000
vn 0.9954 -0.0954 0.0000
vn 0.0000 0.6978 -0.7163
vn 0.0000 -0.3976 -0.9175
vn 0.9890 0.1476 0.0000
vn -0.9890 -0.1476 0.0000
vn 0.0000 0.3976 0.9175
vn 0.9291 0.3699 0.0000
vn -0.9954 -0.0954 0.0000
vn -1.0000 0.0000 0.0000
vn -0.9890 0.1476 0.0000
vn 0.9890 -0.1476 0.0000
vn 0.0000 0.1443 0.9895
vn 0.0000 0.6978 0.7163
vn 0.0000 -0.3976 0.9175
vn 0.0000 0.3976 -0.9175
usemtl None
s off
f 25//7 84//7 83//7
f 27//7 36//7 33//7
f 26//7 111//7 84//7
f 86//8 29//8 85//8
f 40//8 31//8 37//8
f 114//8 30//8 86//8
f 49//9 30//9 54//9
f 25//10 38//10 34//10
f 36//11 32//11 40//11
f 28//12 31//12 32//12
f 26//11 39//11 30//11
f 35//11 40//11 39//11
f 33//10 31//10 27//10
f 34//10 37//10 33//10
f 30//8 38//8 29//8
f 37//13 44//13 40//13
f 34//7 26//7 25//7
f 33//7 35//7 34//7
f 83//10 29//10 25//10
f 43//8 41//8 42//8
f 40//14 43//14 39//14
f 37//15 42//15 41//15
f 38//16 43//16 42//16
f 110//7 45//7 109//7
f 58//7 47//7 55//7
f 111//7 46//7 110//7
f 50//8 113//8 112//8
f 52//8 62//8 59//8
f 51//8 114//8 113//8
f 49//9 51//9 46//9
f 60//17 45//17 56//17
f 58//18 53//18 48//18
f 48//12 52//12 47//12
f 111//19 54//19 49//19
f 46//18 61//18 57//18
f 57//18 62//18 58//18
f 52//17 55//17 47//17
f 59//17 56//17 55//17
f 60//8 51//8 50//8
f 66//13 59//13 62//13
f 46//7 56//7 45//7
f 57//7 55//7 56//7
f 50//17 109//17 45//17
f 63//8 65//8 64//8
f 65//20 62//20 61//20
f 59//21 64//21 60//21
f 60//16 65//16 61//16
f 84//7 67//7 83//7
f 78//7 69//7 75//7
f 111//7 68//7 84//7
f 71//8 86//8 85//8
f 73//8 82//8 79//8
f 72//8 114//8 86//8
f 95//22 72//22 68//22
f 80//10 67//10 76//10
f 78//11 74//11 70//11
f 70//23 73//23 69//23
f 68//11 81//11 77//11
f 77//11 82//11 78//11
f 73//10 75//10 69//10
f 79//10 76//10 75//10
f 80//8 72//8 71//8
f 90//24 79//24 82//24
f 68//7 76//7 67//7
f 77//7 75//7 76//7
f 71//10 83//10 67//10
f 87//8 89//8 88//8
f 89//14 82//14 81//14
f 79//15 88//15 80//15
f 80//25 89//25 81//25
f 91//7 110//7 109//7
f 93//7 104//7 101//7
f 92//7 111//7 110//7
f 113//8 96//8 112//8
f 108//8 98//8 105//8
f 114//8 97//8 113//8
f 95//22 97//22 100//22
f 91//17 106//17 102//17
f 104//18 99//18 108//18
f 94//23 98//23 99//23
f 111//19 100//19 114//19
f 92//18 107//18 97//18
f 103//18 108//18 107//18
f 101//17 98//17 93//17
f 102//17 105//17 101//17
f 97//8 106//8 96//8
f 105//24 118//24 108//24
f 102//7 92//7 91//7
f 101//7 103//7 102//7
f 109//17 96//17 91//17
f 117//8 115//8 116//8
f 108//20 117//20 107//20
f 105//21 116//21 115//21
f 106//25 117//25 116//25
f 25//7 26//7 84//7
f 27//7 28//7 36//7
f 26//7 49//7 111//7
f 86//8 30//8 29//8
f 40//8 32//8 31//8
f 114//8 54//8 30//8
f 49//9 26//9 30//9
f 25//10 29//10 38//10
f 36//11 28//11 32//11
f 28//12 27//12 31//12
f 26//11 35//11 39//11
f 35//11 36//11 40//11
f 33//10 37//10 31//10
f 34//10 38//10 37//10
f 30//8 39//8 38//8
f 37//13 41//13 44//13
f 34//7 35//7 26//7
f 33//7 36//7 35//7
f 83//10 85//10 29//10
f 43//8 44//8 41//8
f 40//14 44//14 43//14
f 37//15 38//15 42//15
f 38//16 39//16 43//16
f 110//7 46//7 45//7
f 58//7 48//7 47//7
f 111//7 49//7 46//7
f 50//8 51//8 113//8
f 52//8 53//8 62//8
f 51//8 54//8 114//8
f 49//9 54//9 51//9
f 60//17 50//17 45//17
f 58//18 62//18 53//18
f 48//12 53//12 52//12
f 111//19 114//19 54//19
f 46//18 51//18 61//18
f 57//18 61//18 62//18
f 52//17 59//17 55//17
f 59//17 60//17 56//17
f 60//8 61//8 51//8
f 66//13 63//13 59//13
f 46//7 57//7 56//7
f 57//7 58//7 55//7
f 50//17 112//17 109//17
f 63//8 66//8 65//8
f 65//20 66//20 62//20
f 59//21 63//21 64//21
f 60//16 64//16 65//16
f 84//7 68//7 67//7
f 78//7 70//7 69//7
f 111//7 95//7 68//7
f 71//8 72//8 86//8
f 73//8 74//8 82//8
f 72//8 100//8 114//8
f 95//22 100//22 72//22
f 80//10 71//10 67//10
f 78//11 82//11 74//11
f 70//23 74//23 73//23
f 68//11 72//11 81//11
f 77//11 81//11 82//11
f 73//10 79//10 75//10
f 79//10 80//10 76//10
f 80//8 81//8 72//8
f 90//24 87//24 79//24
f 68//7 77//7 76//7
f 77//7 78//7 75//7
f 71//10 85//10 83//10
f 87//8 90//8 89//8
f 89//14 90//14 82//14
f 79//15 87//15 88//15
f 80//25 88//25 89//25
f 91//7 92//7 110//7
f 93//7 94//7 104//7
f 92//7 95//7 111//7
f 113//8 97//8 96//8
f 108//8 99//8 98//8
f 114//8 100//8 97//8
f 95//22 92//22 97//22
f 91//17 96//17 106//17
f 104//18 94//18 99//18
f 94//23 93//23 98//23
f 111//19 95//19 100//19
f 92//18 103//18 107//18
f 103//18 104//18 108//18
f 101//17 105//17 98//17
f 102//17 106//17 105//17
f 97//8 107//8 106//8
f 105//24 115//24 118//24
f 102//7 103//7 92//7
f 101//7 104//7 103//7
f 109//17 112//17 96//17
f 117//8 118//8 115//8
f 108//20 118//20 117//20
f 105//21 106//21 116//21
f 106//25 107//25 117//25
