<svg xmlns="http://www.w3.org/2000/svg" viewBox="0 0 264.5 121.79"><defs><style>.cls-1{fill:none;stroke:#0071bc;stroke-miterlimit:10;stroke-width:4px;}.cls-2{fill:#0071bc;}</style></defs><title>back-btn</title><g id="Laag_2" data-name="Laag 2"><g id="Laag_1-2" data-name="Laag 1"><polyline class="cls-1" points="62.31 120.38 2.83 60.9 62.31 1.41"/><path class="cls-2" d="M137.28,35.54l-15,40.61H117L102.28,35.54h5.3l11.24,32.2a19.15,19.15,0,0,1,.82,3.6h.11a17.62,17.62,0,0,1,.93-3.65l11.47-32.14Z"/><path class="cls-2" d="M151,76.84a13.45,13.45,0,0,1-10.27-4.06q-3.84-4.06-3.84-10.78,0-7.31,4-11.41t10.79-4.11q6.48,0,10.12,4t3.64,11.07q0,6.94-3.92,11.12T151,76.84Zm.34-26.45a8.83,8.83,0,0,0-7.08,3q-2.61,3-2.61,8.4,0,5.15,2.63,8.13a9,9,0,0,0,7.05,3A8.49,8.49,0,0,0,158.23,70q2.42-2.92,2.42-8.3t-2.42-8.38A8.45,8.45,0,0,0,151.3,50.38Z"/><path class="cls-2" d="M187.95,51.86a5.68,5.68,0,0,0-3.51-.93,5.93,5.93,0,0,0-5,2.8,13,13,0,0,0-2,7.65V76.16h-4.64v-29h4.64v6h.11a10.13,10.13,0,0,1,3-4.77,6.91,6.91,0,0,1,4.56-1.71,7.59,7.59,0,0,1,2.78.4Z"/><path class="cls-2" d="M195.37,39.79a2.94,2.94,0,0,1-2.12-.85,2.87,2.87,0,0,1-.88-2.15,3,3,0,0,1,3-3,3,3,0,0,1,2.17.86,3,3,0,0,1,0,4.29A3,3,0,0,1,195.37,39.79Zm2.27,36.36H193v-29h4.64Z"/><path class="cls-2" d="M231.79,73.83q0,16-15.29,16a20.53,20.53,0,0,1-9.4-2V83.12a19.31,19.31,0,0,0,9.35,2.72q10.71,0,10.71-11.38V71.28H227A11.73,11.73,0,0,1,208.35,73q-3.3-3.87-3.3-10.38,0-7.39,3.55-11.75a11.87,11.87,0,0,1,9.73-4.36,9.45,9.45,0,0,1,8.69,4.7h.11v-4h4.64ZM227.14,63V58.77a8.3,8.3,0,0,0-2.34-5.92A7.69,7.69,0,0,0,219,50.38a8.07,8.07,0,0,0-6.74,3.13q-2.44,3.13-2.44,8.77A12,12,0,0,0,212.15,70a7.55,7.55,0,0,0,6.19,2.9,8.08,8.08,0,0,0,6.36-2.78A10.35,10.35,0,0,0,227.14,63Z"/><path class="cls-2" d="M264.5,62.82H244q.11,4.84,2.61,7.48a9,9,0,0,0,6.85,2.63,14.25,14.25,0,0,0,9-3.23v4.36q-3.82,2.78-10.11,2.78t-9.66-4q-3.51-4-3.51-11.12a15.86,15.86,0,0,1,3.84-11,12.3,12.3,0,0,1,9.53-4.26q5.69,0,8.81,3.68t3.12,10.22Zm-4.76-3.94a9.45,9.45,0,0,0-1.94-6.26,6.61,6.61,0,0,0-5.31-2.24,7.5,7.5,0,0,0-5.58,2.35,10.67,10.67,0,0,0-2.83,6.15Z"/></g></g></svg>