<svg xmlns="http://www.w3.org/2000/svg" viewBox="0 0 465 113.79"><defs><style>.cls-1,.cls-2{fill:#fff;}.cls-1{stroke:#000;stroke-miterlimit:10;}</style></defs><title>binder-icon-2</title><g id="Laag_2" data-name="Laag 2"><g id="Binder-2"><polygon class="cls-1" points="320.47 12 256.17 12.3 256.17 32.74 256.17 32.81 256.17 53.25 320.17 53.25 340.91 32.59 320.47 12"/><polygon class="cls-1" points="409.83 12.15 325.39 12.15 345.87 32.63 325.39 53.1 409.83 53.1 409.83 32.36 409.83 32.36 409.83 12.15"/><polygon class="cls-1" points="118.47 12 54.17 12.3 54.17 32.74 54.17 32.81 54.17 53.25 118.17 53.25 138.91 32.59 118.47 12"/><polygon class="cls-1" points="207.83 12.15 123.39 12.15 143.87 32.63 123.39 53.1 207.83 53.1 207.83 32.36 207.83 32.36 207.83 12.15"/><circle cx="232.5" cy="32.5" r="32"/><circle class="cls-1" cx="32.5" cy="32.5" r="32"/><circle class="cls-1" cx="432.5" cy="32.5" r="32"/><path d="M28.55,18.69h5.36V46H31.21V21.36H26.92Z"/><path class="cls-2" d="M225.92,27.23H223.3A9.38,9.38,0,0,1,226,20.6,8.68,8.68,0,0,1,232.39,18a8.13,8.13,0,0,1,8.42,8.17,8.94,8.94,0,0,1-1.11,4.35,31.31,31.31,0,0,1-4.31,5.5l-6.8,7.32h12.59V46H222.65l10.43-11.27a33.63,33.63,0,0,0,4.13-5,6.79,6.79,0,0,0,1-3.46,5.33,5.33,0,0,0-1.72-4,5.81,5.81,0,0,0-4.2-1.66,5.89,5.89,0,0,0-4.35,1.74A7.5,7.5,0,0,0,225.92,27.23Z"/><path d="M426.55,25h-2.78a9.19,9.19,0,0,1,2.91-5.2A7.63,7.63,0,0,1,431.76,18a8.41,8.41,0,0,1,4,1,7.22,7.22,0,0,1,2.86,2.63,6.52,6.52,0,0,1,1,3.45,6.26,6.26,0,0,1-3.51,5.58A8,8,0,0,1,439.33,33a7.47,7.47,0,0,1,1.78,4.86,8.67,8.67,0,0,1-1.22,4.43,8.49,8.49,0,0,1-3.34,3.26,9.74,9.74,0,0,1-4.73,1.15,8.69,8.69,0,0,1-5.88-2,10,10,0,0,1-3.08-6h2.67a7.74,7.74,0,0,0,2,3.84,6.23,6.23,0,0,0,4.3,1.5,6.48,6.48,0,0,0,4.77-1.78,5.69,5.69,0,0,0,1.8-4.17,5.4,5.4,0,0,0-.9-3,5.67,5.67,0,0,0-2.41-2.1,13.4,13.4,0,0,0-4.69-.87V29.6a8.59,8.59,0,0,0,3.41-.66,5,5,0,0,0,2.24-1.68,3.88,3.88,0,0,0,.7-2.23A4,4,0,0,0,435.35,22a5.11,5.11,0,0,0-3.59-1.3,4.82,4.82,0,0,0-3,1A7.49,7.49,0,0,0,426.55,25Z"/><path d="M105.88,106q.31-4.37.56-11.27T106.69,84l6.72,0,5.88,0q-.06.64-.06,1.14L117.94,85q-.5-.05-1.74-.06h-2.43L108,85l-.33,9.25q2.43,0,4.46,0,2.42,0,6,0a10.23,10.23,0,0,0-.08,1.06l-6.08,0-4.32,0-.32,9.68,4.62,0q2.72,0,3.78,0t2.88-.12a9.35,9.35,0,0,0-.08,1.14l-5.66,0Z"/><path d="M122.71,106l.55-9.85.14-4.62q0-1.24,0-1.8l.63,0,.61,0-.22,3.67q.35-.76.59-1.15a5.51,5.51,0,0,1,.64-.85,5.67,5.67,0,0,1,1-.85,5.17,5.17,0,0,1,1.34-.66,9.16,9.16,0,0,1,1.6-.39,11.26,11.26,0,0,1,4.26.19,4.78,4.78,0,0,1,2.11,1.06,3.9,3.9,0,0,1,1.15,1.72,6.78,6.78,0,0,1,.31,2.09q0,.5,0,1.48l-.34,7.33L137,106l-.63,0-.61,0q.16-2,.25-3.85L136.2,98q.13-2.29.13-3.3a5.54,5.54,0,0,0-.31-1.9A3,3,0,0,0,135,91.41a4.86,4.86,0,0,0-1.78-.81,9,9,0,0,0-2.13-.25,8,8,0,0,0-2.71.42A5.62,5.62,0,0,0,126.41,92a6,6,0,0,0-1.37,2,8.74,8.74,0,0,0-.61,2.43q-.19,1.35-.31,4.42T124,106l-.65,0Z"/><path d="M148.16,105a7.39,7.39,0,0,0-.19,1,10.08,10.08,0,0,1-2.4.32,6.08,6.08,0,0,1-1.64-.2,2.33,2.33,0,0,1-1.17-.73,2.65,2.65,0,0,1-.6-1.16,6.06,6.06,0,0,1-.15-1.36c0-.09,0-.22,0-.4s0-.58.06-1.21l.54-10.67h-2a7.7,7.7,0,0,0,.08-.87h2q.08-1,.13-3a7.23,7.23,0,0,0,1.06-.21q-.11,2.61-.11,3.24h4.83a8.19,8.19,0,0,0-.08.87h-4.81l-.53,11,0,.66a4.54,4.54,0,0,0,.31,2,1.91,1.91,0,0,0,.89.89,2.71,2.71,0,0,0,1.18.27,6.71,6.71,0,0,0,.93-.07Q147,105.26,148.16,105Z"/><path d="M162.88,104.38a11.66,11.66,0,0,0-.19,1.22,17.91,17.91,0,0,1-2.4.54,15.19,15.19,0,0,1-2.18.15,10.32,10.32,0,0,1-3.42-.52,6,6,0,0,1-2.55-1.74,7.25,7.25,0,0,1-1.51-2.73,11.74,11.74,0,0,1,.32-7.41,7.13,7.13,0,0,1,6.94-4.53,7.8,7.8,0,0,1,3.27.67,4.82,4.82,0,0,1,2.28,2.18,7.49,7.49,0,0,1,.81,3.59c0,.26,0,.51,0,.74l-12.76,0q-.08,1-.08,1.58a9.76,9.76,0,0,0,.45,3,6.1,6.1,0,0,0,1.36,2.4,5.62,5.62,0,0,0,2.19,1.43,7.79,7.79,0,0,0,2.7.47A13.55,13.55,0,0,0,162.88,104.38Zm-11.28-8.7,11.47,0a10.63,10.63,0,0,0-.13-1.71,4.87,4.87,0,0,0-.42-1.22,4.44,4.44,0,0,0-.73-1.09,4,4,0,0,0-1-.77,4.93,4.93,0,0,0-1.28-.47,6.68,6.68,0,0,0-1.48-.16,7.31,7.31,0,0,0-1.68.19,6.87,6.87,0,0,0-1.5.53,5.78,5.78,0,0,0-1.27.86,5.15,5.15,0,0,0-1,1.14,6.39,6.39,0,0,0-.58,1.17A13.93,13.93,0,0,0,151.6,95.68Z"/><path d="M167.23,106q.19-3.4.37-8t.18-6.83l0-1.45.6,0,.6,0-.14,3a9,9,0,0,1,1-1.66,4.32,4.32,0,0,1,1.09-.94,5,5,0,0,1,1.45-.58,7.3,7.3,0,0,1,1.73-.2,5.77,5.77,0,0,1,1.34.16,9.37,9.37,0,0,0,.06,1.1,7.78,7.78,0,0,0-1.87-.27,4.35,4.35,0,0,0-1.39.21,4.18,4.18,0,0,0-1.16.61,5.67,5.67,0,0,0-1.83,2.59A9.16,9.16,0,0,0,168.8,96q-.17,2.06-.22,4.71-.06,3.56-.06,5.27l-.65,0Z"/><path d="M192.76,106l-.56-1.82q-.16-.55-.34-1.08-.26-.76-.92-2.61L185,84l.73,0,.73,0,.94,3,6.4,18,8.74-17.22.84-1.74q.37-.76.95-2l.76,0,.76,0q-1.45,2.61-3.78,7.2l-4.22,8.23q-1.89,3.66-3.22,6.56l-.9,0Z"/><path d="M207,106q.18-2.42.42-8.43t.24-7.85l.64,0,.65,0q-.23,3.06-.44,8.35t-.22,7.93l-.65,0Zm.6-20.4,0-1.59.82,0,.82,0,0,1.59q-.4,0-.82,0T207.64,85.58Z"/><path d="M213,106q.19-3.4.37-8t.18-6.83l0-1.45.6,0,.6,0-.14,3a8.9,8.9,0,0,1,1-1.66,4.32,4.32,0,0,1,1.09-.94,5,5,0,0,1,1.45-.58,7.29,7.29,0,0,1,1.73-.2,5.76,5.76,0,0,1,1.34.16,9.37,9.37,0,0,0,.06,1.1,7.77,7.77,0,0,0-1.87-.27,4.34,4.34,0,0,0-1.39.21,4.2,4.2,0,0,0-1.16.61A5.67,5.67,0,0,0,215,93.77a9.2,9.2,0,0,0-.43,2.24q-.17,2.06-.22,4.71-.06,3.56-.06,5.27l-.65,0Z"/><path d="M230,105a7.39,7.39,0,0,0-.19,1,10.08,10.08,0,0,1-2.4.32,6.08,6.08,0,0,1-1.63-.2,2.33,2.33,0,0,1-1.17-.73,2.66,2.66,0,0,1-.6-1.16,6.11,6.11,0,0,1-.15-1.36c0-.09,0-.22,0-.4s0-.58.06-1.21l.54-10.67h-2a7.94,7.94,0,0,0,.08-.87h2q.08-1,.13-3a7.25,7.25,0,0,0,1.06-.21q-.11,2.61-.11,3.24h4.83a7.94,7.94,0,0,0-.08.87h-4.81l-.53,11,0,.66a4.55,4.55,0,0,0,.31,2,1.92,1.92,0,0,0,.89.89,2.72,2.72,0,0,0,1.19.27,6.72,6.72,0,0,0,.93-.07Q228.81,105.26,230,105Z"/><path d="M246.65,106l-.6,0-.6,0,.13-3.5a9.82,9.82,0,0,1-.6,1.18,5.76,5.76,0,0,1-.6.77,4.86,4.86,0,0,1-.93.77,5.88,5.88,0,0,1-1.31.62,8.51,8.51,0,0,1-1.56.37,11.43,11.43,0,0,1-1.6.11,10.44,10.44,0,0,1-2.59-.31,5.42,5.42,0,0,1-2.13-1.06,3.85,3.85,0,0,1-1.27-1.76,7.14,7.14,0,0,1-.34-2.28q0-1,.22-4.86t.22-6.32l.63,0,.63,0q-.13,1.39-.38,5.75t-.25,5.46A5.91,5.91,0,0,0,234,103a3,3,0,0,0,1.12,1.41,5,5,0,0,0,1.81.78,9.45,9.45,0,0,0,2.07.22,8,8,0,0,0,2.14-.28,6.55,6.55,0,0,0,1.7-.7,5,5,0,0,0,1.19-1,7,7,0,0,0,1-1.64,7.69,7.69,0,0,0,.55-2q.18-1.22.3-4.41t.13-5.61l.65,0,.63,0L246.75,101l-.06,2.43Q246.65,104.92,246.65,106Z"/><path d="M252.21,91.41a11.41,11.41,0,0,0,.18-1.26,23,23,0,0,1,2.85-.62,17.57,17.57,0,0,1,2.45-.17,13.47,13.47,0,0,1,2.67.25,5,5,0,0,1,2,.84,2.8,2.8,0,0,1,1,1.35,4.9,4.9,0,0,1,.25,1.55q0,.81-.06,2T263.44,98q-.1,1.42-.18,3.54t-.08,3.05V106l-.68,0-.68,0q.23-2.47.31-4t.14-3.29q.06-1.77.15-3.29l-.76.62a3.83,3.83,0,0,1-.58.36,7.67,7.67,0,0,1-.76.33l-.81.29q-.37.12-1.8.51t-2,.58a13.89,13.89,0,0,0-2.14.85,5.94,5.94,0,0,0-1.37,1,3.12,3.12,0,0,0-.71,1,3.32,3.32,0,0,0-.26,1.3,2.8,2.8,0,0,0,.63,1.82,3.35,3.35,0,0,0,1.59,1.09,7.49,7.49,0,0,0,2.31.31,11.49,11.49,0,0,0,1.3-.07q.63-.07,1.18-.19t1.6-.46q-.14.61-.24,1.22-1.31.26-2.12.33c-.54,0-1.06.07-1.54.07a13.9,13.9,0,0,1-2.5-.21,4.27,4.27,0,0,1-1.92-.82,3.86,3.86,0,0,1-1.14-1.42,4,4,0,0,1-.37-1.69,3.9,3.9,0,0,1,.22-1.31,4.14,4.14,0,0,1,.69-1.21,4.3,4.3,0,0,1,1-.9,8.2,8.2,0,0,1,1.68-.87q1.06-.42,2.29-.77l2.66-.69a13.13,13.13,0,0,0,2-.68A3.39,3.39,0,0,0,262,94.58a2.57,2.57,0,0,0,.51-1.49,2.43,2.43,0,0,0-.24-1.06,2.63,2.63,0,0,0-.86-1,3.8,3.8,0,0,0-1.54-.63,10.17,10.17,0,0,0-1.93-.18,15.1,15.1,0,0,0-2.21.15,14.23,14.23,0,0,0-1.74.35A18.62,18.62,0,0,0,252.21,91.41Z"/><path d="M267.77,106q.74-13.44.87-22l.66,0,.66,0-.41,7.85L269.09,106l-.66,0Z"/><path d="M282.55,106l.26-3.9.46-12.13.06-3.45,0-2.51,3.21,0,3.68,0a7,7,0,0,1,3.34.6,4.29,4.29,0,0,1,1.65,1.72,5.32,5.32,0,0,1,.61,2.57,6.28,6.28,0,0,1-.91,3.31,6,6,0,0,1-2.49,2.3,8,8,0,0,1-3.62.79l-.77,0L295.74,106l-.83,0-.83,0L292,102.79l-6.14-8.68a14.36,14.36,0,0,0,2.49.26,8.81,8.81,0,0,0,2.47-.35,5.76,5.76,0,0,0,2-1,4.65,4.65,0,0,0,1.32-1.74,5.45,5.45,0,0,0,.47-2.27,5,5,0,0,0-.23-1.53,3.29,3.29,0,0,0-.73-1.25,3.09,3.09,0,0,0-1-.77,5.1,5.1,0,0,0-1.35-.33,13.74,13.74,0,0,0-1.74-.11l-2.65,0-2.23,0q-.53,12.76-.61,21l-.76,0Z"/><path d="M311.08,104.38a11.66,11.66,0,0,0-.19,1.22,17.92,17.92,0,0,1-2.4.54,15.17,15.17,0,0,1-2.17.15,10.32,10.32,0,0,1-3.42-.52,6,6,0,0,1-2.55-1.74,7.25,7.25,0,0,1-1.52-2.73,11.74,11.74,0,0,1,.32-7.41,7.13,7.13,0,0,1,6.95-4.53,7.81,7.81,0,0,1,3.27.67,4.83,4.83,0,0,1,2.28,2.18,7.48,7.48,0,0,1,.81,3.59c0,.26,0,.51,0,.74l-12.76,0q-.08,1-.08,1.58a9.79,9.79,0,0,0,.45,3,6.11,6.11,0,0,0,1.36,2.4,5.62,5.62,0,0,0,2.19,1.43,7.79,7.79,0,0,0,2.69.47A13.55,13.55,0,0,0,311.08,104.38Zm-11.28-8.7,11.47,0a10.5,10.5,0,0,0-.13-1.71,4.83,4.83,0,0,0-.42-1.22,4.44,4.44,0,0,0-.73-1.09,4,4,0,0,0-1-.77,4.94,4.94,0,0,0-1.28-.47,6.7,6.7,0,0,0-1.48-.16,7.33,7.33,0,0,0-1.68.19A6.86,6.86,0,0,0,303,91a5.8,5.8,0,0,0-1.27.86,5.12,5.12,0,0,0-1,1.14,6.32,6.32,0,0,0-.58,1.17A13.93,13.93,0,0,0,299.81,95.68Z"/><path d="M316.43,91.41a11.42,11.42,0,0,0,.18-1.26,23,23,0,0,1,2.85-.62,17.57,17.57,0,0,1,2.45-.17,13.47,13.47,0,0,1,2.67.25,5,5,0,0,1,2,.84,2.79,2.79,0,0,1,1,1.35,4.92,4.92,0,0,1,.25,1.55q0,.81-.06,2T327.67,98q-.1,1.42-.18,3.54t-.08,3.05V106l-.68,0-.68,0q.22-2.47.31-4t.15-3.29q.06-1.77.15-3.29l-.77.62a3.93,3.93,0,0,1-.58.36,7.5,7.5,0,0,1-.76.33l-.81.29q-.37.12-1.8.51t-2,.58a13.87,13.87,0,0,0-2.14.85,5.94,5.94,0,0,0-1.37,1,3.12,3.12,0,0,0-.71,1,3.32,3.32,0,0,0-.26,1.3,2.79,2.79,0,0,0,.63,1.82,3.34,3.34,0,0,0,1.59,1.09,7.48,7.48,0,0,0,2.31.31,11.51,11.51,0,0,0,1.31-.07q.63-.07,1.18-.19t1.6-.46q-.15.61-.24,1.22-1.31.26-2.12.33c-.54,0-1.05.07-1.54.07a13.89,13.89,0,0,1-2.5-.21,4.27,4.27,0,0,1-1.92-.82,3.86,3.86,0,0,1-1.14-1.42,4,4,0,0,1-.37-1.69,3.92,3.92,0,0,1,.23-1.31,4.18,4.18,0,0,1,.69-1.21,4.31,4.31,0,0,1,1-.9,8.15,8.15,0,0,1,1.67-.87q1.06-.42,2.29-.77l2.66-.69a13.2,13.2,0,0,0,2-.68,3.39,3.39,0,0,0,1.45-1.14,2.56,2.56,0,0,0,.52-1.49A2.43,2.43,0,0,0,326.5,92a2.63,2.63,0,0,0-.86-1,3.81,3.81,0,0,0-1.54-.63,10.18,10.18,0,0,0-1.93-.18,15.09,15.09,0,0,0-2.21.15,14.19,14.19,0,0,0-1.74.35A18.81,18.81,0,0,0,316.43,91.41Z"/><path d="M332,106q.74-13.44.87-22l.66,0,.66,0-.41,7.85L333.32,106l-.66,0Z"/><path d="M338.28,106q.18-2.42.42-8.43t.24-7.85l.64,0,.65,0q-.23,3.06-.44,8.35t-.22,7.93l-.64,0Zm.59-20.4,0-1.59.82,0,.82,0,0,1.59c-.27,0-.54,0-.82,0S339.15,85.56,338.88,85.58Z"/><path d="M350.87,105a7.39,7.39,0,0,0-.19,1,10.08,10.08,0,0,1-2.4.32,6.08,6.08,0,0,1-1.64-.2,2.33,2.33,0,0,1-1.17-.73,2.65,2.65,0,0,1-.6-1.16,6.06,6.06,0,0,1-.15-1.36c0-.09,0-.22,0-.4s0-.58.06-1.21l.54-10.67h-2a7.7,7.7,0,0,0,.08-.87h2q.08-1,.13-3a7.23,7.23,0,0,0,1.06-.21q-.11,2.61-.11,3.24h4.83a8.19,8.19,0,0,0-.08.87h-4.81l-.53,11,0,.66a4.54,4.54,0,0,0,.31,2,1.91,1.91,0,0,0,.89.89,2.71,2.71,0,0,0,1.18.27,6.71,6.71,0,0,0,.93-.07Q349.68,105.26,350.87,105Z"/><path d="M350.1,113.47a9.7,9.7,0,0,0-.1-1.26q.5.22.82.33a5.21,5.21,0,0,0,.78.18,5.43,5.43,0,0,0,.85.07,3.39,3.39,0,0,0,1.73-.47,5.06,5.06,0,0,0,1.63-1.9,42.21,42.21,0,0,0,1.92-3.94l-3.55-9.88-2.55-6.9.77,0,.76,0,.29,1.14q.18.66.4,1.34.29.93.86,2.5l3.67,10.45,5.08-11.34q.69-1.56,1-2.25t.66-1.84l.73,0,.74,0q-.81,1.8-2.95,6.4l-3.14,6.78-3,6.64a15,15,0,0,1-1.22,2.26,6.43,6.43,0,0,1-.87,1,3.77,3.77,0,0,1-.76.5,4.55,4.55,0,0,1-1.08.39,5.22,5.22,0,0,1-1.29.16A7.65,7.65,0,0,1,350.1,113.47Z"/></g></g></svg>