<svg xmlns="http://www.w3.org/2000/svg" viewBox="0 0 464.5 113.79"><defs><style>.cls-1,.cls-2{fill:#fff;}.cls-1{stroke:#000;stroke-miterlimit:10;}</style></defs><title>binder-icon-3</title><g id="Laag_2" data-name="Laag 2"><g id="Binder-1"><polygon class="cls-1" points="320.47 12 256.17 12.3 256.17 32.74 256.17 32.81 256.17 53.25 320.17 53.25 340.91 32.59 320.47 12"/><polygon class="cls-1" points="409.83 12.15 325.39 12.15 345.87 32.63 325.39 53.1 409.83 53.1 409.83 32.36 409.83 32.36 409.83 12.15"/><polygon class="cls-1" points="118.47 12 54.17 12.3 54.17 32.74 54.17 32.81 54.17 53.25 118.17 53.25 138.91 32.59 118.47 12"/><polygon class="cls-1" points="207.83 12.15 123.39 12.15 143.87 32.63 123.39 53.1 207.83 53.1 207.83 32.36 207.83 32.36 207.83 12.15"/><circle class="cls-1" cx="232.5" cy="32.5" r="32"/><circle class="cls-1" cx="32.5" cy="32.5" r="32"/><circle cx="432.5" cy="32.5" r="32"/><path d="M28.55,18.69h5.36V46H31.21V21.36H26.92Z"/><path class="cls-2" d="M426.55,25h-2.78a9.19,9.19,0,0,1,2.91-5.2A7.63,7.63,0,0,1,431.76,18a8.41,8.41,0,0,1,4,1,7.22,7.22,0,0,1,2.86,2.63,6.52,6.52,0,0,1,1,3.45,6.26,6.26,0,0,1-3.51,5.58A8,8,0,0,1,439.33,33a7.47,7.47,0,0,1,1.78,4.86,8.67,8.67,0,0,1-1.22,4.43,8.49,8.49,0,0,1-3.34,3.26,9.74,9.74,0,0,1-4.73,1.15,8.69,8.69,0,0,1-5.88-2,10,10,0,0,1-3.08-6h2.67a7.74,7.74,0,0,0,2,3.84,6.23,6.23,0,0,0,4.3,1.5,6.48,6.48,0,0,0,4.77-1.78,5.69,5.69,0,0,0,1.8-4.17,5.4,5.4,0,0,0-.9-3,5.67,5.67,0,0,0-2.41-2.1,13.4,13.4,0,0,0-4.69-.87V29.6a8.59,8.59,0,0,0,3.41-.66,5,5,0,0,0,2.24-1.68,3.88,3.88,0,0,0,.7-2.23A4,4,0,0,0,435.35,22a5.11,5.11,0,0,0-3.59-1.3,4.82,4.82,0,0,0-3,1A7.49,7.49,0,0,0,426.55,25Z"/><path d="M225.92,27.23H223.3A9.38,9.38,0,0,1,226,20.6,8.68,8.68,0,0,1,232.39,18a8.13,8.13,0,0,1,8.42,8.17,8.94,8.94,0,0,1-1.11,4.35,31.31,31.31,0,0,1-4.31,5.5l-6.8,7.32h12.59V46H222.65l10.43-11.27a33.63,33.63,0,0,0,4.13-5,6.79,6.79,0,0,0,1-3.46,5.33,5.33,0,0,0-1.72-4,5.81,5.81,0,0,0-4.2-1.66,5.89,5.89,0,0,0-4.35,1.74A7.5,7.5,0,0,0,225.92,27.23Z"/></g><g id="Binder-2"><path d="M324.47,106l.34-5.3.47-13.83q0-.79,0-1.55l0-1.32,3.33,0,3.5,0a16,16,0,0,1,2.51.14,5.15,5.15,0,0,1,1.55.52,4.35,4.35,0,0,1,1.25,1,4.25,4.25,0,0,1,.83,1.5,5.88,5.88,0,0,1,.28,1.82,6.21,6.21,0,0,1-.18,1.52,5,5,0,0,1-.59,1.39,5.53,5.53,0,0,1-.94,1.17,5.7,5.7,0,0,1-1,.8,11.94,11.94,0,0,1-1.33.63q.82.26,1.31.47a6.6,6.6,0,0,1,1,.53,4.43,4.43,0,0,1,1.56,1.73,5.5,5.5,0,0,1,.43,1.22,6.2,6.2,0,0,1,.16,1.43,6.12,6.12,0,0,1-.6,2.73,5.41,5.41,0,0,1-1.8,2.07,6.37,6.37,0,0,1-2.56,1.08,17.16,17.16,0,0,1-3,.24l-3.9,0Zm1.44-1h4.68a14.14,14.14,0,0,0,3.21-.26,6.36,6.36,0,0,0,1.9-.85,4.08,4.08,0,0,0,1.44-1.72,5.51,5.51,0,0,0,.54-2.39,4.51,4.51,0,0,0-.5-2.15A4.25,4.25,0,0,0,335.8,96a4.81,4.81,0,0,0-1.9-.78,14.18,14.18,0,0,0-2.4-.18h-5.24Zm.39-10.89h3.18a27.15,27.15,0,0,0,3.34-.13,7,7,0,0,0,2.06-.68,4.27,4.27,0,0,0,1.23-1,5,5,0,0,0,.89-1.56,5.45,5.45,0,0,0,.32-1.87,4.09,4.09,0,0,0-.31-1.65,3.39,3.39,0,0,0-.92-1.23,3.66,3.66,0,0,0-1.4-.74,9.9,9.9,0,0,0-2.49-.23h-5.56Z"/><path d="M354.59,104.38a11.66,11.66,0,0,0-.19,1.22,17.92,17.92,0,0,1-2.4.54,15.17,15.17,0,0,1-2.17.15,10.32,10.32,0,0,1-3.42-.52,6,6,0,0,1-2.55-1.74,7.25,7.25,0,0,1-1.52-2.73,11.74,11.74,0,0,1,.32-7.41,7.13,7.13,0,0,1,6.95-4.53,7.81,7.81,0,0,1,3.27.67,4.83,4.83,0,0,1,2.28,2.18,7.48,7.48,0,0,1,.81,3.59c0,.26,0,.51,0,.74l-12.76,0q-.08,1-.08,1.58a9.79,9.79,0,0,0,.45,3,6.11,6.11,0,0,0,1.36,2.4,5.62,5.62,0,0,0,2.19,1.43,7.79,7.79,0,0,0,2.69.47A13.55,13.55,0,0,0,354.59,104.38Zm-11.28-8.7,11.47,0a10.5,10.5,0,0,0-.13-1.71,4.83,4.83,0,0,0-.42-1.22,4.44,4.44,0,0,0-.73-1.09,4,4,0,0,0-1-.77,4.94,4.94,0,0,0-1.28-.47,6.7,6.7,0,0,0-1.48-.16,7.33,7.33,0,0,0-1.68.19,6.86,6.86,0,0,0-1.5.53,5.8,5.8,0,0,0-1.27.86,5.12,5.12,0,0,0-1,1.14,6.32,6.32,0,0,0-.58,1.17A13.93,13.93,0,0,0,343.31,95.68Z"/><path d="M365.6,105a7.39,7.39,0,0,0-.19,1,10.06,10.06,0,0,1-2.4.32,6.08,6.08,0,0,1-1.64-.2,2.34,2.34,0,0,1-1.17-.73,2.67,2.67,0,0,1-.6-1.16,6.17,6.17,0,0,1-.14-1.36c0-.09,0-.22,0-.4s0-.58.06-1.21l.54-10.67h-2a8.19,8.19,0,0,0,.08-.87h2q.08-1,.13-3a7.26,7.26,0,0,0,1.06-.21q-.11,2.61-.11,3.24H366a7.94,7.94,0,0,0-.08.87h-4.81l-.53,11,0,.66a4.54,4.54,0,0,0,.31,2,1.91,1.91,0,0,0,.89.89,2.72,2.72,0,0,0,1.19.27,6.71,6.71,0,0,0,.93-.07Q364.4,105.26,365.6,105Z"/><path d="M369,91.41a11.42,11.42,0,0,0,.18-1.26,23,23,0,0,1,2.85-.62,17.57,17.57,0,0,1,2.45-.17,13.47,13.47,0,0,1,2.67.25,5,5,0,0,1,2,.84,2.79,2.79,0,0,1,1,1.35,4.92,4.92,0,0,1,.25,1.55q0,.81-.06,2T380.26,98q-.1,1.42-.18,3.54t-.08,3.05V106l-.68,0-.68,0q.22-2.47.31-4t.15-3.29q.06-1.77.15-3.29l-.77.62a3.93,3.93,0,0,1-.58.36,7.5,7.5,0,0,1-.76.33l-.81.29q-.37.12-1.8.51t-2,.58a13.87,13.87,0,0,0-2.14.85,5.94,5.94,0,0,0-1.37,1,3.12,3.12,0,0,0-.71,1,3.32,3.32,0,0,0-.26,1.3,2.79,2.79,0,0,0,.63,1.82,3.34,3.34,0,0,0,1.59,1.09,7.48,7.48,0,0,0,2.31.31,11.51,11.51,0,0,0,1.31-.07q.63-.07,1.18-.19t1.6-.46q-.15.61-.24,1.22-1.31.26-2.12.33c-.54,0-1.05.07-1.54.07a13.89,13.89,0,0,1-2.5-.21,4.27,4.27,0,0,1-1.92-.82,3.86,3.86,0,0,1-1.14-1.42,4,4,0,0,1-.37-1.69,3.92,3.92,0,0,1,.23-1.31,4.18,4.18,0,0,1,.69-1.21,4.31,4.31,0,0,1,1-.9,8.15,8.15,0,0,1,1.67-.87q1.06-.42,2.29-.77l2.66-.69a13.2,13.2,0,0,0,2-.68,3.39,3.39,0,0,0,1.45-1.14,2.56,2.56,0,0,0,.52-1.49,2.43,2.43,0,0,0-.24-1.06,2.63,2.63,0,0,0-.86-1,3.81,3.81,0,0,0-1.54-.63,10.18,10.18,0,0,0-1.93-.18,15.09,15.09,0,0,0-2.21.15,14.19,14.19,0,0,0-1.74.35A18.81,18.81,0,0,0,369,91.41Z"/><path d="M384.59,106q.74-13.44.87-22l.66,0,.66,0-.41,7.85L385.92,106l-.66,0Z"/><path d="M390.88,106q.18-2.42.42-8.43t.24-7.85l.64,0,.65,0q-.23,3.06-.44,8.35t-.22,7.93l-.64,0Zm.59-20.4,0-1.59.82,0,.82,0,0,1.59c-.27,0-.54,0-.82,0S391.74,85.56,391.47,85.58Z"/><path d="M396.81,106l.55-9.85.15-4.62q0-1.24,0-1.8l.63,0,.61,0-.22,3.67q.35-.76.59-1.15a5.58,5.58,0,0,1,.64-.85,5.71,5.71,0,0,1,1-.85,5.17,5.17,0,0,1,1.34-.66,9.15,9.15,0,0,1,1.6-.39,11.25,11.25,0,0,1,4.26.19,4.77,4.77,0,0,1,2.11,1.06,3.9,3.9,0,0,1,1.15,1.72,6.78,6.78,0,0,1,.31,2.09q0,.5,0,1.48l-.34,7.33-.06,2.63-.63,0-.61,0q.16-2,.25-3.85L410.3,98q.13-2.29.13-3.3a5.54,5.54,0,0,0-.31-1.9,3,3,0,0,0-1.06-1.39,4.86,4.86,0,0,0-1.78-.81,9,9,0,0,0-2.12-.25,8,8,0,0,0-2.71.42A5.63,5.63,0,0,0,400.51,92a6,6,0,0,0-1.37,2,8.77,8.77,0,0,0-.61,2.43q-.19,1.35-.31,4.42t-.12,5.2l-.64,0Z"/><path d="M416.56,111.86a28.8,28.8,0,0,0,3.51.82,17.13,17.13,0,0,0,2.55.21,8.82,8.82,0,0,0,2.55-.35,5.83,5.83,0,0,0,1.84-.85,3.9,3.9,0,0,0,1-1.11,5.64,5.64,0,0,0,.65-1.8,14.47,14.47,0,0,0,.27-2.32q.12-2,.17-4.51-.32.77-.56,1.22a5.17,5.17,0,0,1-.65.93,5.31,5.31,0,0,1-1,.89,7.18,7.18,0,0,1-1.27.71,7.87,7.87,0,0,1-1.59.49,9,9,0,0,1-1.81.18,9.58,9.58,0,0,1-2.78-.39,5.88,5.88,0,0,1-2.29-1.31,5.74,5.74,0,0,1-1.52-2.36,9,9,0,0,1-.52-3,11.46,11.46,0,0,1,.77-4.17,8.36,8.36,0,0,1,5.5-5.16,13.94,13.94,0,0,1,4-.56,31.06,31.06,0,0,1,5.35.56l-.16,1.85c0,.35-.07.82-.1,1.38l-.36,7.38L430,107.3a10.14,10.14,0,0,1-.32,2.14,5.64,5.64,0,0,1-.84,1.79,5.14,5.14,0,0,1-1.42,1.34,7.22,7.22,0,0,1-2.16.87,13.24,13.24,0,0,1-3.19.35,23.06,23.06,0,0,1-2.54-.14,24.47,24.47,0,0,1-2.88-.52Q416.64,112.47,416.56,111.86Zm13-21.17a22.49,22.49,0,0,0-2.45-.36c-.61,0-1.16-.06-1.63-.06a13.35,13.35,0,0,0-3.43.42,7.07,7.07,0,0,0-2.89,1.58,7.71,7.71,0,0,0-2,3,10.12,10.12,0,0,0-.72,3.77,8.27,8.27,0,0,0,.67,3.38,4.65,4.65,0,0,0,2.08,2.28,6.43,6.43,0,0,0,3.12.77,8.62,8.62,0,0,0,2.16-.26,5.06,5.06,0,0,0,1.46-.62,6.06,6.06,0,0,0,1.31-1.14,7.53,7.53,0,0,0,1.1-1.67,8.17,8.17,0,0,0,.69-2,26.63,26.63,0,0,0,.38-3.59Z"/></g></g></svg>