<svg xmlns="http://www.w3.org/2000/svg" viewBox="0 0 464.5 113.79"><defs><style>.cls-1,.cls-2{fill:#fff;}.cls-1{stroke:#000;stroke-miterlimit:10;}</style></defs><title>binder-icon-1</title><g id="Laag_2" data-name="Laag 2"><g id="Binder-1"><polygon class="cls-1" points="319.97 12 255.67 12.3 255.67 32.74 255.67 32.81 255.67 53.25 319.67 53.25 340.41 32.59 319.97 12"/><polygon class="cls-1" points="409.33 12.15 324.89 12.15 345.37 32.63 324.89 53.1 409.33 53.1 409.33 32.36 409.33 32.36 409.33 12.15"/><polygon class="cls-1" points="117.97 12 53.67 12.3 53.67 32.74 53.67 32.81 53.67 53.25 117.67 53.25 138.41 32.59 117.97 12"/><polygon class="cls-1" points="207.33 12.15 122.89 12.15 143.37 32.63 122.89 53.1 207.33 53.1 207.33 32.36 207.33 32.36 207.33 12.15"/><circle class="cls-1" cx="232" cy="32.5" r="32"/><circle cx="32" cy="32.5" r="32"/><circle class="cls-1" cx="432" cy="32.5" r="32"/><path class="cls-2" d="M28.05,18.69h5.36V46H30.71V21.36H26.42Z"/><path d="M225.42,27.23H222.8a9.37,9.37,0,0,1,2.7-6.63A8.68,8.68,0,0,1,231.89,18a8.13,8.13,0,0,1,8.42,8.17,8.94,8.94,0,0,1-1.11,4.35,31.31,31.31,0,0,1-4.31,5.5l-6.8,7.32h12.59V46H222.15l10.43-11.27a33.63,33.63,0,0,0,4.13-5,6.79,6.79,0,0,0,1-3.46,5.33,5.33,0,0,0-1.72-4,5.81,5.81,0,0,0-4.2-1.66,5.89,5.89,0,0,0-4.35,1.74A7.5,7.5,0,0,0,225.42,27.23Z"/><path d="M426,25h-2.78a9.19,9.19,0,0,1,2.91-5.2A7.63,7.63,0,0,1,431.26,18a8.41,8.41,0,0,1,4,1,7.22,7.22,0,0,1,2.86,2.63,6.52,6.52,0,0,1,1,3.45,6.26,6.26,0,0,1-3.51,5.58A8,8,0,0,1,438.83,33a7.47,7.47,0,0,1,1.78,4.86,8.67,8.67,0,0,1-1.22,4.43A8.49,8.49,0,0,1,436,45.52a9.74,9.74,0,0,1-4.73,1.15,8.69,8.69,0,0,1-5.88-2,10,10,0,0,1-3.08-6H425a7.74,7.74,0,0,0,2,3.84,6.23,6.23,0,0,0,4.3,1.5,6.48,6.48,0,0,0,4.77-1.78,5.69,5.69,0,0,0,1.8-4.17,5.4,5.4,0,0,0-.9-3,5.67,5.67,0,0,0-2.41-2.1,13.4,13.4,0,0,0-4.69-.87V29.6a8.59,8.59,0,0,0,3.41-.66,5,5,0,0,0,2.24-1.68,3.88,3.88,0,0,0,.7-2.23A4,4,0,0,0,434.85,22a5.11,5.11,0,0,0-3.59-1.3,4.82,4.82,0,0,0-3,1A7.49,7.49,0,0,0,426,25Z"/></g><g id="Binder-2"><path d="M41.11,106l-.56-1.82q-.16-.55-.34-1.08-.26-.76-.92-2.61L33.32,84,34,84l.73,0,.94,3,6.4,18,8.74-17.22L51.69,86q.37-.76.95-2l.76,0,.76,0q-1.45,2.61-3.78,7.2l-4.22,8.23q-1.88,3.66-3.22,6.56l-.9,0Z"/><path d="M62.73,89.37a10.08,10.08,0,0,1,2.9.42,6.12,6.12,0,0,1,2.47,1.43,6.42,6.42,0,0,1,1.64,2.63,10.45,10.45,0,0,1,.56,3.45,11.94,11.94,0,0,1-.6,3.77,8.36,8.36,0,0,1-1.69,3,6,6,0,0,1-2.57,1.72,9.71,9.71,0,0,1-3.13.5A9.86,9.86,0,0,1,60,106a6.7,6.7,0,0,1-2.09-.89,6.43,6.43,0,0,1-1.71-1.63,7.2,7.2,0,0,1-1.11-2.37,10.65,10.65,0,0,1-.38-2.85,11.45,11.45,0,0,1,1-4.75,6.42,6.42,0,0,1,2.89-3.17A8.73,8.73,0,0,1,62.73,89.37Zm0,.9a7.09,7.09,0,0,0-3.56.93,5.54,5.54,0,0,0-2.42,2.85,11.12,11.12,0,0,0-.77,4.2,10.06,10.06,0,0,0,.44,3,5.69,5.69,0,0,0,1.43,2.39A5.48,5.48,0,0,0,59.93,105a7.53,7.53,0,0,0,2.39.38,7.66,7.66,0,0,0,2.69-.47,5.45,5.45,0,0,0,2.22-1.56,6.84,6.84,0,0,0,1.41-2.69,12.36,12.36,0,0,0,.45-3.38,10.65,10.65,0,0,0-.44-3.11,5.2,5.2,0,0,0-1.38-2.33,5.26,5.26,0,0,0-2.13-1.23A8.55,8.55,0,0,0,62.69,90.27Z"/><path d="M81.29,89.37a10.08,10.08,0,0,1,2.9.42,6.12,6.12,0,0,1,2.47,1.43,6.42,6.42,0,0,1,1.64,2.63,10.45,10.45,0,0,1,.56,3.45,11.94,11.94,0,0,1-.6,3.77,8.36,8.36,0,0,1-1.69,3A6,6,0,0,1,84,105.8a9.71,9.71,0,0,1-3.13.5,9.86,9.86,0,0,1-2.28-.27,6.7,6.7,0,0,1-2.09-.89,6.43,6.43,0,0,1-1.71-1.63,7.2,7.2,0,0,1-1.11-2.37,10.65,10.65,0,0,1-.38-2.85,11.45,11.45,0,0,1,1-4.75,6.42,6.42,0,0,1,2.89-3.17A8.73,8.73,0,0,1,81.29,89.37Zm0,.9a7.09,7.09,0,0,0-3.56.93,5.54,5.54,0,0,0-2.42,2.85,11.12,11.12,0,0,0-.77,4.2,10.06,10.06,0,0,0,.44,3,5.69,5.69,0,0,0,1.43,2.39A5.48,5.48,0,0,0,78.49,105a7.53,7.53,0,0,0,2.39.38,7.66,7.66,0,0,0,2.69-.47,5.45,5.45,0,0,0,2.22-1.56,6.84,6.84,0,0,0,1.41-2.69,12.36,12.36,0,0,0,.45-3.38,10.65,10.65,0,0,0-.44-3.11,5.2,5.2,0,0,0-1.38-2.33,5.26,5.26,0,0,0-2.13-1.23A8.55,8.55,0,0,0,81.26,90.27Z"/><path d="M92.29,106q.19-3.4.37-8t.18-6.83l0-1.45.6,0,.6,0-.14,3a9,9,0,0,1,1-1.66A4.33,4.33,0,0,1,96,90.15a5,5,0,0,1,1.45-.58,7.29,7.29,0,0,1,1.73-.2,5.76,5.76,0,0,1,1.34.16,9.37,9.37,0,0,0,.06,1.1,7.78,7.78,0,0,0-1.87-.27,4.35,4.35,0,0,0-1.39.21,4.18,4.18,0,0,0-1.16.61,5.67,5.67,0,0,0-1.83,2.59A9.18,9.18,0,0,0,93.87,96q-.17,2.06-.22,4.71-.06,3.56-.06,5.27l-.65,0Z"/><path d="M102.86,106l.13-1.6.46-13.28.17-7.12.68,0,.69,0q-.18,1.82-.25,3.61l-.12,2.51a24.34,24.34,0,0,1,3-.6,19.87,19.87,0,0,1,2.38-.15,11.36,11.36,0,0,1,3.58.51,5.47,5.47,0,0,1,2.52,1.69,7.06,7.06,0,0,1,1.4,2.63,11.1,11.1,0,0,1,.41,3,12.53,12.53,0,0,1-.48,3.47,9.12,9.12,0,0,1-1.51,3,6,6,0,0,1-2.47,1.95,8.2,8.2,0,0,1-3.2.6,7.63,7.63,0,0,1-1.94-.24,6.19,6.19,0,0,1-1.63-.66,5.19,5.19,0,0,1-1.17-.93,5.09,5.09,0,0,1-.74-1,9,9,0,0,1-.56-1.38l0,3.9-.65,0Zm1.74-14.73q-.12,3.27-.19,4.25t-.06,2.3a16.18,16.18,0,0,0,.26,3.06,6,6,0,0,0,1,2.38,4.84,4.84,0,0,0,1.93,1.6,6.1,6.1,0,0,0,2.62.55,6.63,6.63,0,0,0,2.71-.55,5,5,0,0,0,2.1-1.75,9,9,0,0,0,1.28-2.79,11.92,11.92,0,0,0,.44-3.19,8,8,0,0,0-.86-3.86A5.15,5.15,0,0,0,113.52,91a7.79,7.79,0,0,0-3.4-.69,15.52,15.52,0,0,0-2.49.21A21,21,0,0,0,104.6,91.25Z"/><path d="M133.61,104.38a11.66,11.66,0,0,0-.19,1.22,17.91,17.91,0,0,1-2.4.54,15.18,15.18,0,0,1-2.18.15,10.32,10.32,0,0,1-3.42-.52,6,6,0,0,1-2.55-1.74,7.25,7.25,0,0,1-1.51-2.73,11.74,11.74,0,0,1,.32-7.41,7.13,7.13,0,0,1,6.94-4.53,7.8,7.8,0,0,1,3.27.67,4.82,4.82,0,0,1,2.28,2.18,7.49,7.49,0,0,1,.81,3.59c0,.26,0,.51,0,.74l-12.76,0q-.08,1-.08,1.58a9.77,9.77,0,0,0,.45,3,6.11,6.11,0,0,0,1.36,2.4,5.62,5.62,0,0,0,2.19,1.43,7.79,7.79,0,0,0,2.69.47A13.55,13.55,0,0,0,133.61,104.38Zm-11.28-8.7,11.47,0a10.56,10.56,0,0,0-.13-1.71,4.85,4.85,0,0,0-.42-1.22,4.44,4.44,0,0,0-.73-1.09,4,4,0,0,0-1-.77,4.93,4.93,0,0,0-1.28-.47,6.69,6.69,0,0,0-1.48-.16,7.32,7.32,0,0,0-1.68.19,6.86,6.86,0,0,0-1.5.53,5.79,5.79,0,0,0-1.27.86,5.13,5.13,0,0,0-1,1.14,6.36,6.36,0,0,0-.58,1.17A13.93,13.93,0,0,0,122.33,95.68Z"/><path d="M138,106q.19-3.4.37-8t.18-6.83l0-1.45.6,0,.6,0-.14,3a9,9,0,0,1,1-1.66,4.33,4.33,0,0,1,1.09-.94,5,5,0,0,1,1.45-.58,7.29,7.29,0,0,1,1.73-.2,5.76,5.76,0,0,1,1.34.16,9.37,9.37,0,0,0,.06,1.1,7.78,7.78,0,0,0-1.87-.27,4.35,4.35,0,0,0-1.39.21,4.18,4.18,0,0,0-1.16.61A5.67,5.67,0,0,0,140,93.77a9.18,9.18,0,0,0-.44,2.24q-.17,2.06-.22,4.71-.06,3.56-.06,5.27l-.65,0Z"/><path d="M160.61,104.38a11.66,11.66,0,0,0-.19,1.22,17.91,17.91,0,0,1-2.4.54,15.18,15.18,0,0,1-2.18.15,10.32,10.32,0,0,1-3.42-.52,6,6,0,0,1-2.55-1.74,7.25,7.25,0,0,1-1.51-2.73,11.74,11.74,0,0,1,.32-7.41,7.13,7.13,0,0,1,6.94-4.53,7.8,7.8,0,0,1,3.27.67,4.82,4.82,0,0,1,2.28,2.18,7.49,7.49,0,0,1,.81,3.59c0,.26,0,.51,0,.74l-12.76,0q-.08,1-.08,1.58a9.77,9.77,0,0,0,.45,3,6.11,6.11,0,0,0,1.36,2.4,5.62,5.62,0,0,0,2.19,1.43,7.79,7.79,0,0,0,2.69.47A13.55,13.55,0,0,0,160.61,104.38Zm-11.28-8.7,11.47,0a10.56,10.56,0,0,0-.13-1.71,4.85,4.85,0,0,0-.42-1.22,4.44,4.44,0,0,0-.73-1.09,4,4,0,0,0-1-.77,4.93,4.93,0,0,0-1.28-.47,6.69,6.69,0,0,0-1.48-.16,7.32,7.32,0,0,0-1.68.19,6.86,6.86,0,0,0-1.5.53,5.79,5.79,0,0,0-1.27.86,5.13,5.13,0,0,0-1,1.14,6.36,6.36,0,0,0-.58,1.17A13.93,13.93,0,0,0,149.34,95.68Z"/><path d="M165.19,106q.18-2.42.42-8.43t.24-7.85l.64,0,.65,0q-.23,3.06-.44,8.35t-.22,7.93l-.65,0Zm.6-20.4,0-1.59.82,0,.82,0,0,1.59q-.4,0-.82,0T165.79,85.58Z"/><path d="M185.16,106l-.64,0h-.65l.23-4.1a11.42,11.42,0,0,1-.72,1.48,6,6,0,0,1-.84,1.07,5.63,5.63,0,0,1-1.23.94,7,7,0,0,1-1.67.68,7.47,7.47,0,0,1-2,.26,7.56,7.56,0,0,1-2.92-.56,6.34,6.34,0,0,1-2.3-1.6,6.18,6.18,0,0,1-1.35-2.4,9.89,9.89,0,0,1-.41-2.87,10.56,10.56,0,0,1,.76-3.94,8.42,8.42,0,0,1,2.2-3.2,8.32,8.32,0,0,1,3.27-1.83,13.79,13.79,0,0,1,3.86-.53,20.54,20.54,0,0,1,3.63.36q.08-1.53.08-2.93,0-1.24,0-2.8l.68,0,.66,0q-.18,3-.28,6.32l-.23,7.8q-.11,4.48-.11,5.9Zm-.8-15.16a11.78,11.78,0,0,0-2-.46,12.79,12.79,0,0,0-1.6-.11,11.45,11.45,0,0,0-3.45.52,7.29,7.29,0,0,0-2.87,1.67,7.7,7.7,0,0,0-1.89,2.93,9.83,9.83,0,0,0-.67,3.49,8,8,0,0,0,.73,3.46,5,5,0,0,0,2.08,2.31,6.07,6.07,0,0,0,3,.75,6.51,6.51,0,0,0,1.8-.23,5.2,5.2,0,0,0,2.71-1.77,7.46,7.46,0,0,0,1-1.65,8.64,8.64,0,0,0,.65-2.08,25.55,25.55,0,0,0,.29-3.46Z"/><path d="M190,106q.18-2.42.42-8.43t.24-7.85l.64,0,.65,0q-.23,3.06-.44,8.35t-.22,7.93l-.65,0Zm.6-20.4,0-1.59.82,0,.82,0,0,1.59q-.4,0-.82,0T190.57,85.58Z"/><path d="M195.9,106l.55-9.85.15-4.62q0-1.24,0-1.8l.63,0,.61,0-.22,3.67q.35-.76.59-1.15a5.51,5.51,0,0,1,.64-.85,5.67,5.67,0,0,1,1-.85,5.17,5.17,0,0,1,1.34-.66,9.16,9.16,0,0,1,1.6-.39,11.26,11.26,0,0,1,4.26.19,4.78,4.78,0,0,1,2.11,1.06,3.9,3.9,0,0,1,1.15,1.72,6.77,6.77,0,0,1,.31,2.09q0,.5,0,1.48l-.34,7.33-.06,2.63-.63,0-.61,0q.16-2,.25-3.85L209.4,98q.13-2.29.13-3.3a5.53,5.53,0,0,0-.31-1.9,3,3,0,0,0-1.06-1.39,4.85,4.85,0,0,0-1.78-.81,9,9,0,0,0-2.13-.25,8,8,0,0,0-2.71.42A5.63,5.63,0,0,0,199.61,92a6,6,0,0,0-1.37,2,8.76,8.76,0,0,0-.61,2.43q-.19,1.35-.31,4.42t-.12,5.2l-.65,0Z"/><path d="M215.66,111.86a28.8,28.8,0,0,0,3.51.82,17.13,17.13,0,0,0,2.55.21,8.82,8.82,0,0,0,2.55-.35,5.83,5.83,0,0,0,1.84-.85,3.92,3.92,0,0,0,1-1.11,5.66,5.66,0,0,0,.65-1.8,14.58,14.58,0,0,0,.27-2.32q.12-2,.17-4.51-.32.77-.56,1.22a5.17,5.17,0,0,1-.65.93,5.33,5.33,0,0,1-1,.89,7.21,7.21,0,0,1-1.27.71,7.89,7.89,0,0,1-1.59.49,9,9,0,0,1-1.81.18,9.58,9.58,0,0,1-2.78-.39,5.88,5.88,0,0,1-2.29-1.31,5.74,5.74,0,0,1-1.52-2.36,9,9,0,0,1-.52-3,11.46,11.46,0,0,1,.77-4.17,8.35,8.35,0,0,1,5.49-5.16,13.94,13.94,0,0,1,4-.56,31.06,31.06,0,0,1,5.35.56l-.16,1.85c0,.35-.07.82-.1,1.38l-.36,7.38-.18,6.75a10.14,10.14,0,0,1-.32,2.14,5.6,5.6,0,0,1-.84,1.79,5.13,5.13,0,0,1-1.42,1.34,7.22,7.22,0,0,1-2.16.87,13.24,13.24,0,0,1-3.19.35,23.07,23.07,0,0,1-2.55-.14,24.49,24.49,0,0,1-2.88-.52Q215.74,112.47,215.66,111.86Zm13-21.17a22.51,22.51,0,0,0-2.45-.36c-.61,0-1.15-.06-1.63-.06a13.35,13.35,0,0,0-3.43.42,7.07,7.07,0,0,0-2.89,1.58,7.7,7.7,0,0,0-2,3,10.1,10.1,0,0,0-.72,3.77,8.28,8.28,0,0,0,.67,3.38,4.65,4.65,0,0,0,2.08,2.28,6.44,6.44,0,0,0,3.12.77,8.62,8.62,0,0,0,2.16-.26,5.06,5.06,0,0,0,1.46-.62,6,6,0,0,0,1.31-1.14,7.55,7.55,0,0,0,1.1-1.67,8.17,8.17,0,0,0,.69-2,26.7,26.7,0,0,0,.38-3.59Z"/></g></g></svg>