<svg xmlns="http://www.w3.org/2000/svg" viewBox="0 0 379.33 379.33"><defs><style>.cls-1{fill:#686868;}.cls-2,.cls-3,.cls-4,.cls-5{fill:none;stroke:#fff;stroke-miterlimit:10;}.cls-2{stroke-width:10px;}.cls-3{stroke-width:7px;}.cls-4{stroke-width:5px;}.cls-5{stroke-width:4px;}.cls-6{fill:#444;}</style></defs><title>enter-vr-button-clicked</title><g id="Laag_2" data-name="Laag 2"><g id="Laag_1-2" data-name="Laag 1"><rect class="cls-1" width="379.33" height="379.33"/><path class="cls-2" d="M189.67,228h-2.84a31.58,31.58,0,0,0-23.39,10.37l-24.56,27.09a31.58,31.58,0,0,1-23.39,10.37H55.42a31.58,31.58,0,0,1-31.58-31.58V142.95a31.58,31.58,0,0,1,31.58-31.58h268.5a31.58,31.58,0,0,1,31.58,31.58V244.28a31.58,31.58,0,0,1-31.58,31.58H263.86a31.58,31.58,0,0,1-23.39-10.37L215.9,238.4A31.58,31.58,0,0,0,192.51,228Z" transform="translate(0)"/><circle class="cls-3" cx="122.85" cy="190.67" r="28.64"/><circle class="cls-3" cx="249.13" cy="190.98" r="28.64"/><path class="cls-4" d="M103.48,192.67a21.37,21.37,0,0,1,21.37-21.37" transform="translate(0)"/><path class="cls-5" d="M228.76,192.67a21.37,21.37,0,0,1,21.37-21.37" transform="translate(0)"/><path class="cls-6" d="M0,1" transform="translate(0)"/></g></g></svg>