<svg xmlns="http://www.w3.org/2000/svg" viewBox="0 0 383.33 384.33"><defs><style>.cls-1{fill:#444;}.cls-2{fill:#686868;}.cls-3,.cls-4,.cls-5,.cls-6,.cls-7,.cls-8{fill:none;stroke-miterlimit:10;}.cls-3,.cls-5{stroke:#999;}.cls-3,.cls-4{stroke-width:10px;}.cls-4,.cls-6,.cls-7,.cls-8{stroke:#fff;}.cls-5,.cls-6{stroke-width:7px;}.cls-7{stroke-width:5px;}.cls-8{stroke-width:4px;}</style></defs><title>enter-vr-button-unclicked</title><g id="Laag_2" data-name="Laag 2"><g id="Laag_1-2" data-name="Laag 1"><polygon class="cls-1" points="381.33 384.33 0 384.33 0 3 4 0 383.33 1 383.33 379.33 381.33 384.33"/><rect class="cls-2" x="4" width="379.33" height="379.33"/><path class="cls-3" d="M195.67,226h-2.84a31.58,31.58,0,0,0-23.39,10.37l-24.56,27.09a31.58,31.58,0,0,1-23.39,10.37H61.42a31.58,31.58,0,0,1-31.58-31.58V140.95a31.58,31.58,0,0,1,31.58-31.58h268.5a31.58,31.58,0,0,1,31.58,31.58V242.28a31.58,31.58,0,0,1-31.58,31.58H269.86a31.58,31.58,0,0,1-23.39-10.37L221.9,236.4A31.58,31.58,0,0,0,198.51,226Z"/><path class="cls-4" d="M193.67,228h-2.84a31.58,31.58,0,0,0-23.39,10.37l-24.56,27.09a31.58,31.58,0,0,1-23.39,10.37H59.42a31.58,31.58,0,0,1-31.58-31.58V142.95a31.58,31.58,0,0,1,31.58-31.58h268.5a31.58,31.58,0,0,1,31.58,31.58V244.28a31.58,31.58,0,0,1-31.58,31.58H267.86a31.58,31.58,0,0,1-23.39-10.37L219.9,238.4A31.58,31.58,0,0,0,196.51,228Z"/><circle class="cls-5" cx="127.85" cy="189.67" r="28.64"/><circle class="cls-6" cx="126.85" cy="190.67" r="28.64"/><circle class="cls-5" cx="254.13" cy="189.98" r="28.64"/><circle class="cls-6" cx="253.13" cy="190.98" r="28.64"/><path class="cls-7" d="M107.48,192.67a21.37,21.37,0,0,1,21.37-21.37"/><path class="cls-8" d="M232.76,192.67a21.37,21.37,0,0,1,21.37-21.37"/><path class="cls-1" d="M4,1"/></g></g></svg>