<svg id="Laag_1" data-name="Laag 1" xmlns="http://www.w3.org/2000/svg" viewBox="0 0 512 512">
    <defs>
        <style>.cls-1{fill:#356c84;}.cls-2{fill:#53a5d3;}.cls-3{fill:#848484;}.cls-4{fill:#fff;}</style>
    </defs>
    <title>select-icon couch</title>
    <circle class="cls-1" cx="251.48" cy="258.81" r="243.55"/>
    <circle class="cls-2" cx="256" cy="256" r="243.55"/>
    <path class="cls-3"
          d="M324.75,220.33a5.43,5.43,0,0,0,7.68,0l5-5a16.29,16.29,0,0,0,14.91,0l5,5a5.43,5.43,0,0,0,7.68-7.68l-5-5a16.93,16.93,0,0,0,0-14.91l5-5a5.43,5.43,0,1,0-7.68-7.68l-5,5a16.93,16.93,0,0,0-14.91,0l-5-5a5.43,5.43,0,1,0-7.68,7.68l5,5a16.9,16.9,0,0,0,0,14.91l-5,5A5.43,5.43,0,0,0,324.75,220.33Zm24.42-24.43a6.09,6.09,0,1,1-4.31-1.78A6.1,6.1,0,0,1,349.18,195.9Z"/>
    <path class="cls-3"
          d="M237.89,220.33a5.43,5.43,0,0,0,7.68,0l5-5a16.29,16.29,0,0,0,14.91,0l5,5a5.43,5.43,0,0,0,7.68-7.68l-5-5a16.9,16.9,0,0,0,0-14.91l5-5a5.43,5.43,0,0,0-7.68-7.68l-5,5a16.93,16.93,0,0,0-14.91,0l-5-5a5.43,5.43,0,0,0-7.68,7.68l5,5a16.9,16.9,0,0,0,0,14.91l-5,5A5.41,5.41,0,0,0,237.89,220.33Zm24.43-24.43a6.09,6.09,0,1,1-4.31-1.78A6.1,6.1,0,0,1,262.32,195.9Z"/>
    <path class="cls-3"
          d="M151,220.33a5.43,5.43,0,0,0,7.68,0l5-5a16.29,16.29,0,0,0,14.91,0l5,5a5.43,5.43,0,0,0,7.68-7.68l-5-5a16.9,16.9,0,0,0,0-14.91l5-5a5.43,5.43,0,0,0-7.68-7.68l-5,5a16.93,16.93,0,0,0-14.91,0l-5-5a5.43,5.43,0,0,0-7.68,7.68l5,5a16.9,16.9,0,0,0,0,14.91l-5,5A5.41,5.41,0,0,0,151,220.33Zm24.43-24.43a6.09,6.09,0,1,1-4.31-1.78A6.1,6.1,0,0,1,175.46,195.9Z"/>
    <path class="cls-3"
          d="M420.88,232.78A21.65,21.65,0,0,0,410,214.08V182.34a31,31,0,0,0-31-31H137a31,31,0,0,0-31,31v31.74a21.65,21.65,0,0,0-10.86,18.7V341.36h5.43v16.29h32.57V341.36H382.88v16.29h32.57V341.36h5.43Zm-282.31,38V254.49H377.45v16.29Zm249.73,10.86V232.78a10.87,10.87,0,0,1,10.86-10.86,10.7,10.7,0,0,1,1.78.18,13,13,0,0,1,1.83.5l.85.3a10.86,10.86,0,0,1,6.39,9.87V330.5H388.31Zm-271.45-99.3A20.17,20.17,0,0,1,137,162.2H379a20.17,20.17,0,0,1,20.15,20.14v28.72a21.74,21.74,0,0,0-21.72,21.72v10.86H138.58V232.78a21.74,21.74,0,0,0-21.72-21.72ZM106,232.78a10.85,10.85,0,0,1,6.39-9.87l.85-.3a12.52,12.52,0,0,1,1.84-.5,10.16,10.16,0,0,1,1.78-.18,10.87,10.87,0,0,1,10.86,10.86V330.5H106Zm16.29,114H111.43v-5.43h10.86Zm16.29-65.15h114V330.5h-114ZM377.45,330.5h-114V281.64h114Zm27.14,16.29H393.74v-5.43H404.6Z"/>
    <path class="cls-4"
          d="M322.74,221.84a5.43,5.43,0,0,0,7.68,0l5-5a16.29,16.29,0,0,0,14.91,0l5,5a5.43,5.43,0,0,0,7.68-7.68l-5-5a16.93,16.93,0,0,0,0-14.91l5-5a5.43,5.43,0,1,0-7.68-7.68l-5,5a16.93,16.93,0,0,0-14.91,0l-5-5a5.43,5.43,0,1,0-7.68,7.68l5,5a16.9,16.9,0,0,0,0,14.91l-5,5A5.43,5.43,0,0,0,322.74,221.84Zm24.42-24.43a6.09,6.09,0,1,1-4.31-1.78A6.1,6.1,0,0,1,347.16,197.41Z"/>
    <path class="cls-4"
          d="M235.87,221.84a5.43,5.43,0,0,0,7.68,0l5-5a16.29,16.29,0,0,0,14.91,0l5,5a5.43,5.43,0,0,0,7.68-7.68l-5-5a16.9,16.9,0,0,0,0-14.91l5-5a5.43,5.43,0,0,0-7.68-7.68l-5,5a16.93,16.93,0,0,0-14.91,0l-5-5a5.43,5.43,0,0,0-7.68,7.68l5,5a16.9,16.9,0,0,0,0,14.91l-5,5A5.41,5.41,0,0,0,235.87,221.84Zm24.43-24.43a6.09,6.09,0,1,1-4.31-1.78A6.1,6.1,0,0,1,260.31,197.41Z"/>
    <path class="cls-4"
          d="M149,221.84a5.43,5.43,0,0,0,7.68,0l5-5a16.29,16.29,0,0,0,14.91,0l5,5a5.43,5.43,0,0,0,7.68-7.68l-5-5a16.9,16.9,0,0,0,0-14.91l5-5a5.43,5.43,0,0,0-7.68-7.68l-5,5a16.93,16.93,0,0,0-14.91,0l-5-5a5.43,5.43,0,0,0-7.68,7.68l5,5a16.9,16.9,0,0,0,0,14.91l-5,5A5.41,5.41,0,0,0,149,221.84Zm24.43-24.43a6.09,6.09,0,1,1-4.31-1.78A6.1,6.1,0,0,1,173.44,197.41Z"/>
    <path class="cls-4"
          d="M418.87,234.28A21.65,21.65,0,0,0,408,215.59V183.85a31,31,0,0,0-31-31H135a31,31,0,0,0-31,31v31.74a21.65,21.65,0,0,0-10.86,18.7V342.86h5.43v16.29h32.57V342.86H380.87v16.29h32.57V342.86h5.43Zm-282.31,38V256H375.44v16.29ZM386.3,283.14V234.28a10.87,10.87,0,0,1,10.86-10.86,10.7,10.7,0,0,1,1.78.18,13,13,0,0,1,1.83.5l.85.3a10.86,10.86,0,0,1,6.39,9.87V332H386.3Zm-271.45-99.3A20.17,20.17,0,0,1,135,163.71H377a20.17,20.17,0,0,1,20.15,20.14v28.72a21.74,21.74,0,0,0-21.72,21.72v10.86H136.56V234.28a21.74,21.74,0,0,0-21.72-21.72ZM104,234.28a10.85,10.85,0,0,1,6.39-9.87l.85-.3a12.52,12.52,0,0,1,1.84-.5,10.16,10.16,0,0,1,1.78-.18,10.87,10.87,0,0,1,10.86,10.86V332H104Zm16.29,114H109.42v-5.43h10.86Zm16.29-65.15h114V332h-114ZM375.44,332h-114V283.14h114Zm27.14,16.29H391.72v-5.43h10.86Z"/>
</svg>