<svg id="Laag_1" data-name="Laag 1" xmlns="http://www.w3.org/2000/svg" viewBox="0 0 512 512">
    <defs>
        <style>.cls-1{fill:#356c84;}.cls-2{fill:#53a5d3;}.cls-3{fill:#848484;}.cls-4{fill:#fff;}</style>
    </defs>
    <title>select-icon lamp</title>
    <circle class="cls-1" cx="251.71" cy="259.75" r="243.55"/>
    <circle class="cls-2" cx="256" cy="256" r="243.55"/>
    <path class="cls-3"
          d="M215.58,419.51a8.34,8.34,0,0,0,6.65,8.17,10.54,10.54,0,0,0,1.68.17h66.71a10.54,10.54,0,0,0,1.68-.17,8.34,8.34,0,0,0-1.68-16.5H223.91A8.34,8.34,0,0,0,215.58,419.51Z"/>
    <polygon class="cls-3"
             points="286.46 166.59 226.83 166.59 235.64 188.82 246.15 188.82 251.71 188.82 262.83 188.82 268.48 189.82 278.75 189.82 286.46 166.59"/>
    <polygon class="cls-3"
             points="212.02 161.03 220.52 161.03 222.53 161.03 226.38 161.03 288.16 161.03 292.01 161.03 294.01 161.03 302.52 161.03 322.9 99.88 190.28 99.88 212.02 161.03"/>
    <path class="cls-3"
          d="M270.17,237.07c2.78,0,3.78-1.19,3.78-3.78V216.62a2.78,2.78,0,0,0-2.78-2.78c-1.53,0-3.68.56-3.65,2.94l-.13,5.4h-4.56V194.38H250.71l1,212.24h11.11V227.73h4.59l0,5.62C267.39,234.89,268.63,237.07,270.17,237.07Z"/>
    <path class="cls-4"
          d="M214.58,420.51a8.34,8.34,0,0,0,6.65,8.17,10.54,10.54,0,0,0,1.68.17h66.71a10.54,10.54,0,0,0,1.68-.17,8.34,8.34,0,0,0-1.68-16.5H222.91A8.34,8.34,0,0,0,214.58,420.51Z"/>
    <polygon class="cls-4"
             points="285.3 167.59 227.23 167.59 234.64 189.82 245.15 189.82 250.71 189.82 261.83 189.82 267.39 189.82 277.89 189.82 285.3 167.59"/>
    <polygon class="cls-4"
             points="211.02 162.03 219.52 162.03 221.53 162.03 225.38 162.03 287.16 162.03 291.01 162.03 293.01 162.03 301.52 162.03 321.9 100.88 190.63 100.88 211.02 162.03"/>
    <path class="cls-4"
          d="M270.17,237.07a2.78,2.78,0,0,0,2.78-2.78V217.62a2.78,2.78,0,0,0-5.56,0v5.56h-5.56V195.38H250.71V406.62h11.12V228.73h5.56v5.56A2.78,2.78,0,0,0,270.17,237.07Z"/>
</svg>