<svg id="Laag_1" data-name="Laag 1" xmlns="http://www.w3.org/2000/svg" viewBox="0 0 512 512">
    <defs>
        <style>.cls-1{fill:#356c84;}.cls-2{fill:#53a5d3;}.cls-3{fill:#848484;}.cls-4{fill:#fff;}</style>
    </defs>
    <title>select-icon chair</title>
    <circle class="cls-1" cx="252.48" cy="259.75" r="243.55"/>
    <circle class="cls-2" cx="256" cy="256" r="243.55"/>
    <path class="cls-3"
          d="M328.23,324.16H190.65a4.47,4.47,0,0,1-4.47-4.47V247a36.85,36.85,0,0,0-36.81-36.8,28.58,28.58,0,0,0-28.56,28.55,22,22,0,0,0,21.95,21.95,16.68,16.68,0,0,0,16.66-16.66A12.45,12.45,0,0,0,147,231.64a4.47,4.47,0,1,1,0-8.94,21.41,21.41,0,0,1,21.38,21.38,25.63,25.63,0,0,1-25.61,25.61,30.93,30.93,0,0,1-30.89-30.89,37.53,37.53,0,0,1,37.49-37.49A45.8,45.8,0,0,1,195.11,247v68.17H323.76V247A45.8,45.8,0,0,1,369.5,201.3,37.53,37.53,0,0,1,407,238.79a30.93,30.93,0,0,1-30.89,30.89,25.63,25.63,0,0,1-25.6-25.61,21.41,21.41,0,0,1,21.38-21.38,4.47,4.47,0,0,1,0,8.94,12.45,12.45,0,0,0-12.43,12.44,16.68,16.68,0,0,0,16.65,16.66,22,22,0,0,0,21.95-21.95,28.58,28.58,0,0,0-28.55-28.55A36.84,36.84,0,0,0,332.7,247v72.64A4.47,4.47,0,0,1,328.23,324.16Z"/>
    <path class="cls-3"
          d="M363.1,367.08H156.75a18.47,18.47,0,0,1-18.45-18.45V265.22a4.47,4.47,0,0,1,8.94,0v83.41a9.53,9.53,0,0,0,9.51,9.51H363.1a9.53,9.53,0,0,0,9.51-9.51V265.22a4.47,4.47,0,0,1,8.94,0v83.41A18.47,18.47,0,0,1,363.1,367.08Z"/>
    <path class="cls-3" d="M328.23,286.29H190.65a4.47,4.47,0,0,1,0-8.94H328.24a4.47,4.47,0,1,1,0,8.94Z"/>
    <path class="cls-3"
          d="M190.65,381.6a4.47,4.47,0,0,1-4.47-4.47v-11a4.47,4.47,0,1,1,8.94,0v11A4.47,4.47,0,0,1,190.65,381.6Z"/>
    <path class="cls-3"
          d="M328.23,381.6a4.47,4.47,0,0,1-4.47-4.47v-11a4.47,4.47,0,1,1,8.94,0v11A4.47,4.47,0,0,1,328.23,381.6Z"/>
    <path class="cls-3"
          d="M358.38,210.25a4.47,4.47,0,0,1-4.47-4.47V176.63a44.19,44.19,0,0,0-44.15-44.15H210.07a44.19,44.19,0,0,0-44.15,44.15v29.15a4.47,4.47,0,1,1-8.94,0V176.63a53.16,53.16,0,0,1,53.09-53.09h99.69a53.16,53.16,0,0,1,53.09,53.09v29.15A4.47,4.47,0,0,1,358.38,210.25Z"/>
    <path class="cls-4"
          d="M326.23,326.16H188.65a4.47,4.47,0,0,1-4.47-4.47V249a36.85,36.85,0,0,0-36.81-36.8,28.58,28.58,0,0,0-28.56,28.55,22,22,0,0,0,21.95,21.95,16.68,16.68,0,0,0,16.66-16.66A12.45,12.45,0,0,0,145,233.64a4.47,4.47,0,1,1,0-8.94,21.41,21.41,0,0,1,21.38,21.38,25.63,25.63,0,0,1-25.61,25.61,30.93,30.93,0,0,1-30.89-30.89,37.53,37.53,0,0,1,37.49-37.49A45.8,45.8,0,0,1,193.11,249v68.17H321.76V249A45.8,45.8,0,0,1,367.5,203.3,37.53,37.53,0,0,1,405,240.79a30.93,30.93,0,0,1-30.89,30.89,25.63,25.63,0,0,1-25.6-25.61,21.41,21.41,0,0,1,21.38-21.38,4.47,4.47,0,0,1,0,8.94,12.45,12.45,0,0,0-12.43,12.44,16.68,16.68,0,0,0,16.65,16.66,22,22,0,0,0,21.95-21.95,28.58,28.58,0,0,0-28.55-28.55A36.84,36.84,0,0,0,330.7,249v72.64A4.47,4.47,0,0,1,326.23,326.16Z"/>
    <path class="cls-4"
          d="M361.1,369.08H154.75a18.47,18.47,0,0,1-18.45-18.45V267.22a4.47,4.47,0,0,1,8.94,0v83.41a9.53,9.53,0,0,0,9.51,9.51H361.1a9.53,9.53,0,0,0,9.51-9.51V267.22a4.47,4.47,0,0,1,8.94,0v83.41A18.47,18.47,0,0,1,361.1,369.08Z"/>
    <path class="cls-4" d="M326.23,288.29H188.65a4.47,4.47,0,0,1,0-8.94H326.24a4.47,4.47,0,1,1,0,8.94Z"/>
    <path class="cls-4"
          d="M188.65,383.6a4.47,4.47,0,0,1-4.47-4.47v-11a4.47,4.47,0,1,1,8.94,0v11A4.47,4.47,0,0,1,188.65,383.6Z"/>
    <path class="cls-4"
          d="M326.23,383.6a4.47,4.47,0,0,1-4.47-4.47v-11a4.47,4.47,0,1,1,8.94,0v11A4.47,4.47,0,0,1,326.23,383.6Z"/>
    <path class="cls-4"
          d="M356.38,212.25a4.47,4.47,0,0,1-4.47-4.47V178.63a44.19,44.19,0,0,0-44.15-44.15H208.07a44.19,44.19,0,0,0-44.15,44.15v29.15a4.47,4.47,0,1,1-8.94,0V178.63a53.16,53.16,0,0,1,53.09-53.09h99.69a53.16,53.16,0,0,1,53.09,53.09v29.15A4.47,4.47,0,0,1,356.38,212.25Z"/>
</svg>