<svg id="Laag_1" data-name="Laag 1" xmlns="http://www.w3.org/2000/svg" viewBox="0 0 512 512">
    <defs>
        <style>.cls-1{fill:#356c84;}.cls-2{fill:#53a5d3;}.cls-3{fill:#848484;}.cls-4{fill:#fff;}</style>
    </defs>
    <title>select-icon table</title>
    <circle class="cls-1" cx="254.42" cy="258.81" r="243.55"/>
    <circle class="cls-2" cx="258.94" cy="256" r="243.55"/>
    <path class="cls-3"
          d="M318.55,154.35H66.68v59.3H97.11V354.92h59.3V213.65h17.26v82.49H341V213.65H358.3V356.29h59.3V215h29.08V154.35H318.55ZM133.91,332.43H119.6V213.65h14.31Zm39.75-141.27H90.53V176.85h83.14Zm144.88,22.5v60H196.16v-96.8H318.55Zm76.56,118.78H380.8V213.65h14.31Zm29.08-141.27H341V176.85h83.14Z"/>
    <path class="cls-4"
          d="M317.19,155.71H66.68V215H95.75V356.28h59.3V215h17.26v82.49H339.69V215h17.26V356.29h59.3V215h29.08v-59.3H317.19ZM132.56,333.79H118.25V215h14.31Zm39.75-141.27H89.17V178.21h83.14ZM317.19,215v60H194.81v-96.8H317.19Zm76.56,118.78H379.44V215h14.31Zm29.08-141.27H339.69V178.21h83.14Z"/>
</svg>