# Created By Carrara 5.0

mtllib cross.Mtl

# Number of vertices: 24
v -80.501152 80.3153 -1.636503
v -36.600182 51.278641 -1.636503
v -43.838959 43.890049 -1.636503
v -73.018105 87.943298 -1.636503
v 7.30056 80.3153 -1.636503
v -0.203021 87.943298 -1.636503
v -29.259678 43.890049 -1.636503
v 7.30056 7.485 -1.636503
v -0.203021 0.000002 -1.636503
v -36.600182 36.670216 -1.636503
v -73.018105 0.000002 -1.636503
v -80.501152 7.485 -1.636503
v -43.838959 43.890049 5.517973
v -36.600182 51.278641 5.517973
v -80.501152 80.3153 5.517973
v -73.018105 87.943298 5.517973
v -0.203021 87.943298 5.517973
v 7.30056 80.3153 5.517973
v -29.259678 43.890049 5.517973
v -0.203021 0.000002 5.517973
v 7.30056 7.485 5.517973
v -36.600182 36.670216 5.517973
v -80.501152 7.485 5.517973
v -73.018105 0.000002 5.517973

# Number of normals: 88
vn 0 0 -1
vn -0.704811 -0.709395 0
vn -0.713857 0.700292 0
vn 0 0 -1
vn 0 0 -1
vn 0.70949 0.704715 0
vn 0 0 -1
vn -0.709691 0.704513 0
vn 0 0 -1
vn 0 0 -1
vn -0.704811 -0.709395 0
vn 0 0 -1
vn -0.704614 0.709591 0
vn 0 0 -1
vn -0.713857 0.700292 0
vn 0.70949 0.704715 0
vn 0 0 -1
vn 0.712897 0.701269 0
vn 0.705798 -0.708413 0
vn 0 0 -1
vn -0.709691 0.704513 0
vn 0.712897 0.701269 0
vn 0 0 -1
vn 0.705798 -0.708413 0
vn 0 0 -1
vn 0 0 -1
vn 0.705601 0.708609 0
vn 0 0 -1
vn 0.705601 0.708609 0
vn 0.70623 -0.707983 0
vn 0 0 -1
vn 0.70623 -0.707983 0
vn -0.709744 -0.704459 0
vn 0 0 -1
vn 0 0 -1
vn 0 0 -1
vn -0.709744 -0.704459 0
vn 0.709543 -0.704662 0
vn 0 0 -1
vn -0.707199 -0.707015 0
vn 0.709543 -0.704662 0
vn 0 0 -1
vn -0.707199 -0.707015 0
vn -0.704614 0.709591 0
vn 0 0 1
vn -0.704811 -0.709395 0
vn 0 0 1
vn 0 0 1
vn -0.704614 0.709591 0
vn 0 0 1
vn 0 0 1
vn 0.70949 0.704715 0
vn 0 0 1
vn -0.709691 0.704513 0
vn 0 0 1
vn -0.704811 -0.709395 0
vn -0.713857 0.700292 0
vn 0 0 1
vn 0.70949 0.704715 0
vn -0.713857 0.700292 0
vn 0 0 1
vn 0.712897 0.701269 0
vn -0.709691 0.704513 0
vn 0 0 1
vn 0.712897 0.701269 0
vn 0.705798 -0.708413 0
vn 0 0 1
vn 0 0 1
vn 0.705798 -0.708413 0
vn 0 0 1
vn 0.705601 0.708609 0
vn 0 0 1
vn 0.70623 -0.707983 0
vn -0.709744 -0.704459 0
vn 0 0 1
vn 0.70623 -0.707983 0
vn 0.705601 0.708609 0
vn 0 0 1
vn 0 0 1
vn 0 0 1
vn -0.709744 -0.704459 0
vn 0.709543 -0.704662 0
vn 0 0 1
vn -0.704614 0.709591 0
vn -0.707199 -0.707015 0
vn 0 0 1
vn -0.707199 -0.707015 0
vn 0.709543 -0.704662 0

# Number of texture vertices: 88
vt 0 0
vt 0 0
vt 0 0
vt 0 0
vt 0 0
vt 0 0
vt 0 0
vt 0 0
vt 0 0
vt 0 0
vt 0 0
vt 0 0
vt 0 0
vt 0 0
vt 0 0
vt 0 0
vt 0 0
vt 0 0
vt 0 0
vt 0 0
vt 0 0
vt 0 0
vt 0 0
vt 0 0
vt 0 0
vt 0 0
vt 0 0
vt 0 0
vt 0 0
vt 0 0
vt 0 0
vt 0 0
vt 0 0
vt 0 0
vt 0 0
vt 0 0
vt 0 0
vt 0 0
vt 0 0
vt 0 0
vt 0 0
vt 0 0
vt 0 0
vt 0 0
vt 0 0
vt 0 0
vt 0 0
vt 0 0
vt 0 0
vt 0 0
vt 0 0
vt 0 0
vt 0 0
vt 0 0
vt 0 0
vt 0 0
vt 0 0
vt 0 0
vt 0 0
vt 0 0
vt 0 0
vt 0 0
vt 0 0
vt 0 0
vt 0 0
vt 0 0
vt 0 0
vt 0 0
vt 0 0
vt 0 0
vt 0 0
vt 0 0
vt 0 0
vt 0 0
vt 0 0
vt 0 0
vt 0 0
vt 0 0
vt 0 0
vt 0 0
vt 0 0
vt 0 0
vt 0 0
vt 0 0
vt 0 0
vt 0 0
vt 0 0
vt 0 0

g cross.obj 
g Mesh 
usemtl mat__ACI__7
# Number of Polygons: 22
f 2/4/4 3/9/9 1/1/1 4/14/14 
f 2/4/4 6/20/20 5/17/17 7/23/23 
f 3/9/9 2/4/4 7/23/23 10/34/34 
f 7/23/23 8/28/28 9/31/31 10/34/34 
f 11/39/39 12/42/42 3/9/9 10/34/34 
f 15/55/55 13/45/45 14/50/50 16/58/58 
f 18/64/64 17/61/61 14/50/50 19/67/67 
f 19/67/67 14/50/50 13/45/45 22/78/78 
f 20/72/72 21/75/75 19/67/67 22/78/78 
f 13/45/45 23/83/83 24/86/86 22/78/78 
f 23/84/84 13/49/49 3/13/13 12/44/44 
f 13/46/46 15/56/56 1/2/2 3/11/11 
f 15/57/57 16/60/60 4/15/15 1/3/3 
f 16/59/59 14/52/52 2/6/6 4/16/16 
f 14/54/54 17/63/63 6/21/21 2/8/8 
f 17/62/62 18/65/65 5/18/18 6/22/22 
f 18/66/66 19/69/69 7/24/24 5/19/19 
f 19/71/71 21/77/77 8/29/29 7/27/27 
f 21/76/76 20/73/73 9/32/32 8/30/30 
f 20/74/74 22/81/81 10/37/37 9/33/33 
f 22/82/82 24/88/88 11/41/41 10/38/38 
f 24/87/87 23/85/85 12/43/43 11/40/40 
